<?xml version="1.0" encoding="UTF-8" standalone="no"?>
<!-- Created with Sodipodi ("http://www.sodipodi.com/") -->
<svg
   xmlns:dc="http://purl.org/dc/elements/1.1/"
   xmlns:cc="http://creativecommons.org/ns#"
   xmlns:rdf="http://www.w3.org/1999/02/22-rdf-syntax-ns#"
   xmlns:svg="http://www.w3.org/2000/svg"
   xmlns="http://www.w3.org/2000/svg"
   xmlns:xlink="http://www.w3.org/1999/xlink"
   xmlns:sodipodi="http://sodipodi.sourceforge.net/DTD/sodipodi-0.dtd"
   xmlns:inkscape="http://www.inkscape.org/namespaces/inkscape"
   height="50.002975"
   id="svg602"
   sodipodi:docbase="/home/franck/Dessins/Vectoriels/"
   sodipodi:docname="battleship.svg"
   sodipodi:version="0.32"
   space="preserve"
   width="140.04468"
   inkscape:version="0.46"
   inkscape:output_extension="org.inkscape.output.svg.inkscape"
   version="1.0">
  <metadata
     id="metadata3">
    <rdf:RDF>
      <cc:Work
         rdf:about="">
        <dc:title>trawler</dc:title>
        <dc:description />
        <dc:subject>
          <rdf:Bag>
            <rdf:li>boat</rdf:li>
            <rdf:li />
            <rdf:li>vehicle</rdf:li>
            <rdf:li>transportation</rdf:li>
          </rdf:Bag>
        </dc:subject>
        <dc:publisher>
          <cc:Agent
             rdf:about="http://www.openclipart.org">
            <dc:title>Franck Doucet</dc:title>
          </cc:Agent>
        </dc:publisher>
        <dc:creator>
          <cc:Agent>
            <dc:title>Franck Doucet</dc:title>
          </cc:Agent>
        </dc:creator>
        <dc:rights>
          <cc:Agent>
            <dc:title>Franck Doucet</dc:title>
          </cc:Agent>
        </dc:rights>
        <dc:date />
        <dc:format>image/svg+xml</dc:format>
        <dc:type
           rdf:resource="http://purl.org/dc/dcmitype/StillImage" />
        <cc:license
           rdf:resource="http://web.resource.org/cc/PublicDomain" />
        <dc:language>en</dc:language>
      </cc:Work>
      <cc:License
         rdf:about="http://web.resource.org/cc/PublicDomain">
        <cc:permits
           rdf:resource="http://web.resource.org/cc/Reproduction" />
        <cc:permits
           rdf:resource="http://web.resource.org/cc/Distribution" />
        <cc:permits
           rdf:resource="http://web.resource.org/cc/DerivativeWorks" />
      </cc:License>
    </rdf:RDF>
  </metadata>
  <defs
     id="defs604">
    <linearGradient
       id="linearGradient3937">
      <stop
         style="stop-color:#b0e3e8;stop-opacity:1;"
         offset="0"
         id="stop3939" />
      <stop
         style="stop-color:#4abdcb;stop-opacity:1;"
         offset="1"
         id="stop3941" />
    </linearGradient>
    <linearGradient
       id="linearGradient3905">
      <stop
         style="stop-color:#bcbcbc;stop-opacity:1;"
         offset="0"
         id="stop3907" />
      <stop
         style="stop-color:#5c5c5c;stop-opacity:1;"
         offset="1"
         id="stop3909" />
    </linearGradient>
    <linearGradient
       id="linearGradient3469">
      <stop
         style="stop-color:#515151;stop-opacity:1;"
         offset="0"
         id="stop3471" />
      <stop
         style="stop-color:#b5b5b5;stop-opacity:1;"
         offset="1"
         id="stop3473" />
    </linearGradient>
    <inkscape:perspective
       sodipodi:type="inkscape:persp3d"
       inkscape:vp_x="0 : 526.18109 : 1"
       inkscape:vp_y="0 : 1000 : 0"
       inkscape:vp_z="744.09448 : 526.18109 : 1"
       inkscape:persp3d-origin="372.04724 : 350.78739 : 1"
       id="perspective72" />
    <linearGradient
       id="linearGradient708">
      <stop
         id="stop709"
         offset="0"
         style="stop-color:#73afff;stop-opacity:0.67500001;" />
      <stop
         id="stop710"
         offset="1"
         style="stop-color:#ffffff;stop-opacity:0.9294;" />
    </linearGradient>
    <linearGradient
       id="linearGradient688">
      <stop
         id="stop689"
         offset="0"
         style="stop-color:#b20000;stop-opacity:1;" />
      <stop
         id="stop690"
         offset="1"
         style="stop-color:#ff0000;stop-opacity:1;" />
    </linearGradient>
    <linearGradient
       id="linearGradient616">
      <stop
         id="stop617"
         offset="0"
         style="stop-color:#1f1f1f;stop-opacity:1;" />
      <stop
         id="stop618"
         offset="1"
         style="stop-color:#b3b3b3;stop-opacity:1;" />
    </linearGradient>
    <linearGradient
       id="linearGradient612">
      <stop
         id="stop613"
         offset="0"
         style="stop-color:#000000;stop-opacity:1;" />
      <stop
         id="stop614"
         offset="1"
         style="stop-color:#ffffff;stop-opacity:1;" />
    </linearGradient>
    <linearGradient
       id="linearGradient615"
       x1="167.36375"
       x2="295.01212"
       xlink:href="#linearGradient688"
       y1="1583.7765"
       y2="1419.6233"
       gradientTransform="scale(2.0224251,0.4944559)"
       gradientUnits="userSpaceOnUse" />
    <radialGradient
       cx="163.19968"
       cy="1265.3102"
       fx="163.19968"
       fy="1265.3102"
       id="radialGradient619"
       r="50.250252"
       xlink:href="#linearGradient708"
       gradientTransform="scale(2.2611109,0.4422605)"
       gradientUnits="userSpaceOnUse" />
    <linearGradient
       id="linearGradient691"
       x1="83.847122"
       x2="251.59476"
       xlink:href="#linearGradient616"
       y1="1892.6005"
       y2="1600.4637"
       gradientTransform="scale(2.6802406,0.3731008)"
       gradientUnits="userSpaceOnUse" />
    <linearGradient
       id="linearGradient692"
       x1="351.80185"
       x2="390.6481"
       xlink:href="#linearGradient616"
       y1="482.72543"
       y2="459.04144"
       gradientTransform="scale(0.9289968,1.07643)"
       gradientUnits="userSpaceOnUse" />
    <linearGradient
       id="linearGradient693"
       x1="236.01318"
       x2="237.28253"
       xlink:href="#linearGradient688"
       y1="877.01208"
       y2="912.04315"
       gradientTransform="scale(1.6725908,0.5978749)"
       gradientUnits="userSpaceOnUse" />
    <linearGradient
       id="linearGradient694"
       x1="811.28094"
       x2="846.63971"
       xlink:href="#linearGradient688"
       y1="225.95898"
       y2="224.80453"
       gradientTransform="scale(0.3504383,2.8535695)"
       gradientUnits="userSpaceOnUse" />
    <linearGradient
       id="linearGradient695"
       xlink:href="#linearGradient688"
       gradientTransform="scale(0.3504383,2.8535695)"
       x1="871.21863"
       y1="223.97141"
       x2="894.81238"
       y2="223.97141"
       gradientUnits="userSpaceOnUse" />
    <linearGradient
       id="linearGradient696"
       xlink:href="#linearGradient688"
       gradientTransform="scale(0.3504383,2.8535695)"
       x1="925.76788"
       y1="221.77823"
       x2="949.36163"
       y2="221.77823"
       gradientUnits="userSpaceOnUse" />
    <linearGradient
       gradientTransform="scale(0.8115776,1.2321681)"
       id="linearGradient703"
       x1="55.185238"
       x2="77.783516"
       xlink:href="#linearGradient612"
       y1="589.67358"
       y2="589.04919"
       gradientUnits="userSpaceOnUse" />
    <linearGradient
       id="linearGradient704"
       x1="0.6967541"
       x2="179.49144"
       xlink:href="#linearGradient612"
       y1="2268.8198"
       y2="1826.3501"
       gradientTransform="scale(3.0178859,0.3313578)"
       gradientUnits="userSpaceOnUse" />
    <linearGradient
       id="linearGradient707"
       x1="285.77762"
       x2="212.67508"
       xlink:href="#linearGradient616"
       y1="674.44263"
       y2="610.26025"
       gradientTransform="scale(1.1256358,0.8883868)"
       gradientUnits="userSpaceOnUse" />
    <linearGradient
       gradientTransform="scale(1.7597018,0.5682781)"
       id="linearGradient717"
       x1="148.5358"
       x2="170.27705"
       xlink:href="#linearGradient612"
       y1="949.22632"
       y2="949.22632"
       gradientUnits="userSpaceOnUse" />
    <linearGradient
       gradientTransform="scale(1.175885,0.8504233)"
       id="linearGradient739"
       x1="340.5318"
       x2="354.14172"
       xlink:href="#linearGradient616"
       y1="605.28436"
       y2="605.28436"
       gradientUnits="userSpaceOnUse" />
    <radialGradient
       cx="177.90765"
       cy="1170.9109"
       fx="177.90765"
       fy="1170.9109"
       id="radialGradient740"
       r="19.693073"
       xlink:href="#linearGradient612"
       gradientTransform="scale(2.2962398,0.4354946)"
       gradientUnits="userSpaceOnUse" />
    <linearGradient
       id="linearGradient756"
       x1="0.74331945"
       x2="78.086601"
       xlink:href="#linearGradient616"
       y1="631.36395"
       y2="631.36395"
       gradientTransform="scale(1.0755971,0.9297162)"
       gradientUnits="userSpaceOnUse" />
    <linearGradient
       id="linearGradient1428"
       xlink:href="#linearGradient708" />
    <linearGradient
       inkscape:collect="always"
       xlink:href="#linearGradient616"
       id="linearGradient2553"
       x1="0.74331945"
       y1="631.36395"
       x2="78.086601"
       y2="631.36395"
       gradientTransform="scale(1.0755971,0.9297162)"
       gradientUnits="userSpaceOnUse" />
    <radialGradient
       inkscape:collect="always"
       xlink:href="#linearGradient612"
       id="radialGradient2555"
       cx="177.90765"
       cy="1170.9109"
       fx="177.90765"
       fy="1170.9109"
       r="19.693073"
       gradientTransform="scale(2.2962398,0.4354946)"
       gradientUnits="userSpaceOnUse" />
    <linearGradient
       inkscape:collect="always"
       xlink:href="#linearGradient616"
       id="linearGradient2557"
       gradientTransform="scale(1.175885,0.8504233)"
       x1="340.5318"
       y1="605.28436"
       x2="354.14172"
       y2="605.28436"
       gradientUnits="userSpaceOnUse" />
    <linearGradient
       inkscape:collect="always"
       xlink:href="#linearGradient616"
       id="linearGradient2559"
       x1="351.80185"
       y1="482.72543"
       x2="390.6481"
       y2="459.04144"
       gradientTransform="scale(0.9289968,1.07643)"
       gradientUnits="userSpaceOnUse" />
    <linearGradient
       inkscape:collect="always"
       xlink:href="#linearGradient612"
       id="linearGradient2651"
       gradientUnits="userSpaceOnUse"
       gradientTransform="matrix(0.8115776,0,0,1.2321681,51.97121,-1.181213)"
       x1="55.185238"
       y1="589.67358"
       x2="77.783516"
       y2="589.04919" />
    <linearGradient
       inkscape:collect="always"
       xlink:href="#linearGradient612"
       id="linearGradient2654"
       gradientUnits="userSpaceOnUse"
       gradientTransform="matrix(0.8115774,0,0,1.2321683,51.97121,-1.181213)"
       x1="80.656013"
       y1="589.50403"
       x2="103.2543"
       y2="588.87964" />
    <linearGradient
       inkscape:collect="always"
       xlink:href="#linearGradient612"
       id="linearGradient2657"
       gradientUnits="userSpaceOnUse"
       gradientTransform="matrix(0.529684,0.2085874,-0.6436417,1.6344549,51.97121,-1.181213)"
       x1="508.96381"
       y1="378.8688"
       x2="526.56592"
       y2="378.38248" />
    <linearGradient
       inkscape:collect="always"
       xlink:href="#linearGradient612"
       id="linearGradient2660"
       gradientUnits="userSpaceOnUse"
       gradientTransform="matrix(3.0178859,0,0,0.3313578,51.97121,-1.181213)"
       x1="0.6967541"
       y1="2268.8198"
       x2="179.49144"
       y2="1826.3501" />
    <linearGradient
       inkscape:collect="always"
       xlink:href="#linearGradient688"
       id="linearGradient2665"
       gradientUnits="userSpaceOnUse"
       gradientTransform="matrix(0.3504383,0,0,2.8535698,47.924008,-20.141781)"
       x1="925.76788"
       y1="221.77823"
       x2="949.36163"
       y2="221.77823" />
    <linearGradient
       inkscape:collect="always"
       xlink:href="#linearGradient688"
       id="linearGradient2668"
       gradientUnits="userSpaceOnUse"
       gradientTransform="matrix(0.3504383,0,0,2.8535698,47.924008,-20.141781)"
       x1="871.21863"
       y1="223.97141"
       x2="894.81238"
       y2="223.97141" />
    <linearGradient
       inkscape:collect="always"
       xlink:href="#linearGradient688"
       id="linearGradient2671"
       gradientUnits="userSpaceOnUse"
       gradientTransform="matrix(0.3504383,0,0,2.8535698,47.924008,-20.141781)"
       x1="811.28094"
       y1="225.95898"
       x2="846.63971"
       y2="224.80453" />
    <radialGradient
       inkscape:collect="always"
       xlink:href="#linearGradient708"
       id="radialGradient2675"
       gradientUnits="userSpaceOnUse"
       gradientTransform="matrix(2.2611109,0,0,0.4422605,144.20663,-125.91863)"
       cx="163.19968"
       cy="1265.3102"
       fx="163.19968"
       fy="1265.3102"
       r="50.250252" />
    <linearGradient
       inkscape:collect="always"
       xlink:href="#linearGradient688"
       id="linearGradient2678"
       gradientUnits="userSpaceOnUse"
       gradientTransform="matrix(1.6725908,0,0,0.5978749,51.97121,-1.181213)"
       x1="236.01318"
       y1="877.01208"
       x2="237.28253"
       y2="912.04315" />
    <linearGradient
       inkscape:collect="always"
       xlink:href="#linearGradient688"
       id="linearGradient2681"
       gradientUnits="userSpaceOnUse"
       gradientTransform="matrix(2.0224251,0,0,0.4944559,51.97121,-1.181213)"
       x1="167.36375"
       y1="1583.7765"
       x2="295.01212"
       y2="1419.6233" />
    <linearGradient
       inkscape:collect="always"
       xlink:href="#linearGradient3469"
       id="linearGradient3475"
       x1="51.770721"
       y1="621.76172"
       x2="136.96094"
       y2="621.76172"
       gradientUnits="userSpaceOnUse" />
    <linearGradient
       xlink:href="#linearGradient708"
       id="linearGradient3624" />
    <linearGradient
       y2="-1.3998067e-07"
       y1="-1.3998067e-07"
       xlink:href="#linearGradient616"
       x2="1"
       x1="-1.479278e-08"
       id="linearGradient3622" />
    <radialGradient
       xlink:href="#linearGradient612"
       r="0.93347931"
       id="radialGradient3620"
       fy="0.48267624"
       fx="0.49995232"
       cy="0.48267624"
       cx="0.49995232" />
    <linearGradient
       y2="-1.3891986e-07"
       y1="-1.3891986e-07"
       xlink:href="#linearGradient616"
       x2="1.0000011"
       x1="1.0659803e-06"
       id="linearGradient3618"
       gradientTransform="translate(1.06598e-6,-1.389199e-7)" />
    <linearGradient
       y2="-3.4817717e-06"
       y1="-3.4817717e-06"
       xlink:href="#linearGradient612"
       x2="1.0000002"
       x1="2.5472741e-07"
       id="linearGradient3616"
       gradientTransform="translate(2.547274e-7,-3.481771e-6)" />
    <linearGradient
       y2="0.062500156"
       y1="0.98437572"
       xlink:href="#linearGradient616"
       x2="0.068749525"
       x1="1.1187485"
       id="linearGradient3614" />
    <linearGradient
       y2="-1.2058827"
       y1="0.91176063"
       xlink:href="#linearGradient612"
       x2="0.85906041"
       x1="0.0033557047"
       id="linearGradient3612" />
    <linearGradient
       y2="0.41443574"
       y1="0.44678429"
       xlink:href="#linearGradient612"
       x2="1.5348327"
       x1="0.3640019"
       id="linearGradient3610"
       gradientTransform="matrix(0.999999,-1.355961e-7,-1.561306e-6,1,3.96322e-7,-2.205975e-7)" />
    <linearGradient
       xlink:href="#linearGradient688"
       id="linearGradient3608" />
    <linearGradient
       xlink:href="#linearGradient688"
       id="linearGradient3606" />
    <linearGradient
       y2="0.42603207"
       y1="0.47496212"
       xlink:href="#linearGradient688"
       x2="1.2179239"
       x1="-0.28072283"
       id="linearGradient3604" />
    <linearGradient
       y2="0.25925988"
       y1="-0.018510401"
       xlink:href="#linearGradient688"
       x2="0.47986591"
       x1="0.46980083"
       id="linearGradient3602" />
    <linearGradient
       y2="0.37500098"
       y1="0.85947895"
       xlink:href="#linearGradient616"
       x2="0.99107194"
       x1="0.19643548"
       id="linearGradient3600" />
    <linearGradient
       y2="-0.045454852"
       y1="1.7954154"
       xlink:href="#linearGradient616"
       x2="1.0671141"
       x1="0.010069267"
       id="linearGradient3598" />
    <radialGradient
       xlink:href="#linearGradient708"
       r="0.69961697"
       id="radialGradient3596"
       fy="0.55006492"
       fx="0.34228429"
       cy="0.55006492"
       cx="0.34228429" />
    <linearGradient
       y2="0.64864868"
       y1="1.1621772"
       xlink:href="#linearGradient688"
       x2="0.92281866"
       x1="0.52348989"
       id="linearGradient3594" />
    <linearGradient
       id="linearGradient3588">
      <stop
         style="stop-color:#000000;stop-opacity:1;"
         offset="0"
         id="stop3590" />
      <stop
         style="stop-color:#ffffff;stop-opacity:1;"
         offset="1"
         id="stop3592" />
    </linearGradient>
    <linearGradient
       id="linearGradient3582">
      <stop
         style="stop-color:#8c8c8c;stop-opacity:1;"
         offset="0"
         id="stop3584" />
      <stop
         style="stop-color:#ffffff;stop-opacity:1;"
         offset="1"
         id="stop3586" />
    </linearGradient>
    <linearGradient
       id="linearGradient3576">
      <stop
         style="stop-color:#b20000;stop-opacity:1;"
         offset="0"
         id="stop3578" />
      <stop
         style="stop-color:#ff0000;stop-opacity:1;"
         offset="1"
         id="stop3580" />
    </linearGradient>
    <linearGradient
       id="linearGradient3570">
      <stop
         style="stop-color:#d5e7ff;stop-opacity:0.6039;"
         offset="0"
         id="stop3572" />
      <stop
         style="stop-color:#ffffff;stop-opacity:0.9294;"
         offset="1"
         id="stop3574" />
    </linearGradient>
    <inkscape:perspective
       id="perspective3567"
       inkscape:persp3d-origin="372.04724 : 350.78739 : 1"
       inkscape:vp_z="744.09448 : 526.18109 : 1"
       inkscape:vp_y="0 : 1000 : 0"
       inkscape:vp_x="0 : 526.18109 : 1"
       sodipodi:type="inkscape:persp3d" />
    <linearGradient
       inkscape:collect="always"
       xlink:href="#linearGradient612"
       id="linearGradient3881"
       gradientUnits="userSpaceOnUse"
       gradientTransform="matrix(1.7597018,0,0,0.5682781,51.97121,-1.181213)"
       x1="148.5358"
       y1="949.22632"
       x2="170.27705"
       y2="949.22632" />
    <linearGradient
       inkscape:collect="always"
       xlink:href="#linearGradient616"
       id="linearGradient3885"
       gradientUnits="userSpaceOnUse"
       gradientTransform="matrix(1.1256358,0,0,0.8883868,51.97121,-1.181213)"
       x1="285.77762"
       y1="674.44263"
       x2="212.67508"
       y2="610.26025" />
    <radialGradient
       inkscape:collect="always"
       xlink:href="#linearGradient3905"
       id="radialGradient3913"
       cx="492.77228"
       cy="628.25287"
       fx="492.77228"
       fy="628.25287"
       r="206.04524"
       gradientTransform="matrix(1,0,0,0.148834,0,534.74748)"
       gradientUnits="userSpaceOnUse" />
    <radialGradient
       inkscape:collect="always"
       xlink:href="#linearGradient3937"
       id="radialGradient3943"
       cx="512.36816"
       cy="500.7655"
       fx="512.36816"
       fy="500.7655"
       r="81.702568"
       gradientTransform="matrix(1,0,0,0.2005171,-65.841434,456.56714)"
       gradientUnits="userSpaceOnUse" />
    <linearGradient
       inkscape:collect="always"
       xlink:href="#linearGradient3469"
       id="linearGradient3987"
       gradientUnits="userSpaceOnUse"
       x1="51.770721"
       y1="621.76172"
       x2="136.96094"
       y2="621.76172" />
    <linearGradient
       inkscape:collect="always"
       xlink:href="#linearGradient616"
       id="linearGradient3989"
       gradientUnits="userSpaceOnUse"
       gradientTransform="matrix(1.1256358,0,0,0.8883868,51.97121,-1.181213)"
       x1="285.77762"
       y1="674.44263"
       x2="212.67508"
       y2="610.26025" />
    <linearGradient
       inkscape:collect="always"
       xlink:href="#linearGradient612"
       id="linearGradient3991"
       gradientUnits="userSpaceOnUse"
       gradientTransform="matrix(1.7597018,0,0,0.5682781,51.97121,-1.181213)"
       x1="148.5358"
       y1="949.22632"
       x2="170.27705"
       y2="949.22632" />
    <radialGradient
       inkscape:collect="always"
       xlink:href="#linearGradient3905"
       id="radialGradient3993"
       gradientUnits="userSpaceOnUse"
       gradientTransform="matrix(1,0,0,0.148834,0,534.74748)"
       cx="492.77228"
       cy="628.25287"
       fx="492.77228"
       fy="628.25287"
       r="206.04524" />
    <linearGradient
       inkscape:collect="always"
       xlink:href="#linearGradient688"
       id="linearGradient3995"
       gradientUnits="userSpaceOnUse"
       gradientTransform="matrix(2.0224251,0,0,0.4944559,51.97121,-1.181213)"
       x1="167.36375"
       y1="1583.7765"
       x2="295.01212"
       y2="1419.6233" />
    <linearGradient
       inkscape:collect="always"
       xlink:href="#linearGradient688"
       id="linearGradient3997"
       gradientUnits="userSpaceOnUse"
       gradientTransform="matrix(1.6725908,0,0,0.5978749,51.97121,-1.181213)"
       x1="236.01318"
       y1="877.01208"
       x2="237.28253"
       y2="912.04315" />
    <linearGradient
       inkscape:collect="always"
       xlink:href="#linearGradient688"
       id="linearGradient3999"
       gradientUnits="userSpaceOnUse"
       gradientTransform="matrix(0.3504383,0,0,2.8535698,47.924008,-20.141781)"
       x1="811.28094"
       y1="225.95898"
       x2="846.63971"
       y2="224.80453" />
    <linearGradient
       inkscape:collect="always"
       xlink:href="#linearGradient688"
       id="linearGradient4001"
       gradientUnits="userSpaceOnUse"
       gradientTransform="matrix(0.3504383,0,0,2.8535698,47.924008,-20.141781)"
       x1="871.21863"
       y1="223.97141"
       x2="894.81238"
       y2="223.97141" />
    <linearGradient
       inkscape:collect="always"
       xlink:href="#linearGradient688"
       id="linearGradient4003"
       gradientUnits="userSpaceOnUse"
       gradientTransform="matrix(0.3504383,0,0,2.8535698,47.924008,-20.141781)"
       x1="925.76788"
       y1="221.77823"
       x2="949.36163"
       y2="221.77823" />
    <linearGradient
       inkscape:collect="always"
       xlink:href="#linearGradient612"
       id="linearGradient4005"
       gradientUnits="userSpaceOnUse"
       gradientTransform="matrix(3.0178859,0,0,0.3313578,51.97121,-1.181213)"
       x1="0.6967541"
       y1="2268.8198"
       x2="179.49144"
       y2="1826.3501" />
    <linearGradient
       inkscape:collect="always"
       xlink:href="#linearGradient612"
       id="linearGradient4007"
       gradientUnits="userSpaceOnUse"
       gradientTransform="matrix(0.529684,0.2085874,-0.6436417,1.6344549,51.97121,-1.181213)"
       x1="508.96381"
       y1="378.8688"
       x2="526.56592"
       y2="378.38248" />
    <linearGradient
       inkscape:collect="always"
       xlink:href="#linearGradient612"
       id="linearGradient4009"
       gradientUnits="userSpaceOnUse"
       gradientTransform="matrix(0.8115774,0,0,1.2321683,51.97121,-1.181213)"
       x1="80.656013"
       y1="589.50403"
       x2="103.2543"
       y2="588.87964" />
    <linearGradient
       inkscape:collect="always"
       xlink:href="#linearGradient612"
       id="linearGradient4011"
       gradientUnits="userSpaceOnUse"
       gradientTransform="matrix(0.8115776,0,0,1.2321681,51.97121,-1.181213)"
       x1="55.185238"
       y1="589.67358"
       x2="77.783516"
       y2="589.04919" />
    <radialGradient
       inkscape:collect="always"
       xlink:href="#linearGradient3937"
       id="radialGradient4013"
       gradientUnits="userSpaceOnUse"
       gradientTransform="matrix(1,0,0,0.2005171,-65.841434,456.56714)"
       cx="512.36816"
       cy="500.7655"
       fx="512.36816"
       fy="500.7655"
       r="81.702568" />
  </defs>
  <sodipodi:namedview
     id="base"
     showgrid="false"
     inkscape:zoom="2.2767827"
     inkscape:cx="162.64519"
     inkscape:cy="31.998141"
     inkscape:window-width="1278"
     inkscape:window-height="970"
     inkscape:window-x="0"
     inkscape:window-y="24"
     inkscape:current-layer="svg602" />
  <g
     id="g3965"
     transform="matrix(0.2144746,-1.8147688e-3,1.8147688e-3,0.2144746,-11.10835,-111.43378)">
    <path
       transform="matrix(1.05827,0,0,0.999478,-88.47679,186.11379)"
       style="font-size:12px;fill:#808080;fill-rule:evenodd;stroke:#000000;stroke-width:1.9446665;stroke-miterlimit:4;stroke-dasharray:none;stroke-opacity:1"
       sodipodi:type="arc"
       sodipodi:ry="10.630539"
       sodipodi:rx="10.03997"
       sodipodi:cy="407.44183"
       sodipodi:cx="138.78781"
       id="path757"
       d="M 148.82778,407.44183 A 10.03997,10.630539 0 1 1 128.74784,407.44183 A 10.03997,10.630539 0 1 1 148.82778,407.44183 z" />
    <path
       style="font-size:12px;fill:url(#linearGradient3987);fill-opacity:1;fill-rule:evenodd;stroke:#000000;stroke-width:2;stroke-miterlimit:4;stroke-dasharray:none;stroke-opacity:1"
       sodipodi:nodetypes="cccsccs"
       id="path610"
       d="M 52.898572,589.61949 L 87.24629,657.71539 L 135.96093,656.59929 L 70.23771,589.57499 C 69.12289,588.43809 65.75706,585.87139 63.52389,585.80809 L 56.621307,586.01989 C 54.388141,585.95669 52.21533,588.26489 52.898572,589.61949 z" />
    <path
       d="M 313.32981,550.26739 C 310.24111,550.72829 308.36631,553.56489 304.27651,561.85589 L 285.97811,598.95109 L 364.34661,598.70949 L 364.24221,544.10779 C 364.22981,537.61359 355.40311,535.64129 351.35661,538.15729 C 340.99011,544.53789 328.09101,548.07999 313.32981,550.26739 z"
       id="path633"
       sodipodi:nodetypes="csccsss"
       style="font-size:12px;fill:url(#linearGradient3989);fill-rule:evenodd;stroke:#000000;stroke-width:2;stroke-miterlimit:4;stroke-dasharray:none;stroke-opacity:1" />
    <path
       d="M 304.44991,561.74639 L 294.37671,582.33139 C 307.57081,586.46549 364.56031,581.34459 364.49261,575.43839 L 364.23931,553.33489 C 364.31701,560.11069 315.87221,564.99459 304.44991,561.74639 z"
       id="path713"
       sodipodi:nodetypes="ccssc"
       style="font-size:12px;fill:#ff0000;fill-rule:evenodd;stroke:#000000;stroke-width:2;stroke-miterlimit:4;stroke-dasharray:none;stroke-opacity:1" />
    <path
       d="M 351.53621,538.24339 C 352.24941,540.70699 347.56591,543.66229 341.26281,545.84029 C 331.47821,549.16619 313.76161,551.49589 313.34991,550.26439 C 338.94511,546.78099 345.79901,541.00349 351.53621,538.24339 z"
       id="path716"
       sodipodi:nodetypes="cscc"
       style="font-size:12px;fill:url(#linearGradient3991);fill-rule:evenodd;stroke:#000000;stroke-width:2;stroke-miterlimit:4;stroke-dasharray:none;stroke-opacity:1" />
    <path
       d="M 304.20181,561.80774 L 295.63905,581.38622 C 321.12873,586.19265 364.06196,577.87543 364.01177,574.02061 L 363.76198,554.83204 C 363.82617,559.76601 320.59958,566.36617 304.20181,561.80774 z"
       id="path714"
       sodipodi:nodetypes="ccssc"
       style="font-size:12px;fill:#ffb380;fill-rule:evenodd;stroke:#000000;stroke-width:2.08325481;stroke-miterlimit:4;stroke-dasharray:none;stroke-opacity:1" />
    <path
       style="font-size:12px;fill:url(#radialGradient3993);fill-opacity:1;fill-rule:evenodd;stroke:#000000;stroke-width:2.20530486;stroke-miterlimit:4;stroke-dasharray:none;stroke-opacity:1"
       sodipodi:nodetypes="cccssccc"
       id="path625"
       d="M 292.05803,598.70443 C 282.20673,598.70443 292.65672,630.85025 292.65672,638.54588 L 293.30683,656.05846 L 461.04753,657.80924 C 503.6544,658.25395 592.44261,638.79633 633.99502,625.89534 C 655.66859,619.75638 676.46571,616.23267 697.6925,619.17386 C 698.81946,607.13565 657.05245,599.30943 637.77564,598.68897 L 292.05803,598.70443 z" />
    <path
       style="font-size:12px;fill:url(#linearGradient3995);fill-rule:evenodd;stroke:#000000;stroke-width:2;stroke-miterlimit:4;stroke-dasharray:none;stroke-opacity:1"
       sodipodi:nodetypes="cccccccccccccccssscssssscccssssssscss"
       id="path623"
       d="M 204.38071,613.53179 C 199.49381,613.53179 192.16751,619.34999 195.55941,623.60259 L 211.46031,639.37479 C 215.41401,644.33149 220.82661,646.10489 225.71351,646.10489 L 275.22921,645.26959 C 280.11621,645.26959 284.05051,640.77799 284.05051,635.19869 L 284.05051,623.60259 C 284.05051,618.02329 280.11621,613.53179 275.22921,613.53179 L 204.38071,613.53179 z M 357.64021,613.23649 C 362.52711,613.20879 370.22321,619.37819 366.46161,623.30729 L 352.67841,637.70429 C 348.29391,642.28399 343.31211,645.26959 338.42511,645.26959 L 305.58911,645.26959 C 300.70211,645.26959 296.76781,640.77799 296.76781,635.19869 L 296.76781,623.60259 C 296.76781,618.02329 300.70221,613.55949 305.58911,613.53179 L 357.64021,613.23649 z M 125.1584,617.00139 L 165.01431,617.06439 C 169.15441,617.07089 172.88951,619.09209 175.88521,624.03859 L 194.01311,642.27869 C 197.13511,647.43389 195.91251,653.96739 189.52841,654.15819 L 93.18671,655.69529 C 86.49806,655.89509 78.77591,653.25019 76.43362,659.45999 L 52.709314,722.35649 C 48.853918,734.79189 61.942668,743.59919 75.34077,751.96759 L 634.89141,756.29319 C 642.22991,756.34989 699.45561,688.61949 698.49561,618.39969 C 698.37481,610.74699 655.75351,613.31849 639.51171,616.82749 C 625.33471,619.68279 514.64151,653.15919 465.85741,653.81999 L 377.37201,655.01859 C 367.75581,655.14889 363.33041,646.68259 370.26671,639.88859 L 397.67761,613.04029 C 404.54621,606.31269 413.66541,601.02629 413.66881,598.23679 L 143.34901,600.46519 C 128.62411,600.58659 114.04093,616.98379 125.1584,617.00139 z" />
    <path
       style="font-size:12px;fill:url(#linearGradient3997);fill-rule:evenodd;stroke:#000000;stroke-width:2;stroke-miterlimit:4;stroke-dasharray:none;stroke-opacity:1"
       sodipodi:nodetypes="cccccccccccccccccccccccccccccccccccccccc"
       id="path680"
       d="M 377.38191,543.17899 C 374.43731,543.17899 373.05141,545.71919 372.06671,548.49419 L 365.57031,566.80239 C 364.58561,569.57749 367.94091,572.11749 370.88551,572.11749 L 397.46181,572.11749 C 400.40641,572.11749 402.77701,569.74699 402.77701,566.80239 L 402.77701,548.49419 C 402.77701,545.54959 400.40641,543.17899 397.46181,543.17899 L 377.38191,543.17899 z M 415.76981,543.17899 C 412.82511,543.17899 410.45461,545.54959 410.45461,548.49419 L 410.45461,566.80239 C 410.45461,569.74699 412.82511,572.11749 415.76981,572.11749 L 435.84971,572.11749 C 438.79431,572.11749 441.16491,569.74699 441.16491,566.80239 L 441.16491,548.49419 C 441.16491,545.54959 438.79431,543.17899 435.84971,543.17899 L 415.76981,543.17899 z M 455.92951,541.99789 C 452.98471,541.99789 450.70071,544.36979 450.61411,547.31309 L 450.02361,567.39289 C 449.93711,570.33629 452.39421,572.70809 455.33891,572.70809 L 500.51831,572.70809 C 503.46301,572.70809 506.38221,566.28229 504.35711,564.14469 L 488.41141,547.31309 C 486.38641,545.17559 481.31611,541.99789 478.37151,541.99789 L 455.92951,541.99789 z M 372.18511,534.99519 L 347.62531,599.95909 L 558.56441,598.77799 L 527.73711,572.26289 L 523.19071,572.02879 C 519.56911,572.46329 517.12881,569.94489 515.27901,568.01709 L 495.85091,547.17369 C 491.44191,543.67089 490.22851,540.42359 494.73091,540.50429 L 498.42851,540.56529 C 503.58631,540.65789 507.69021,541.22159 501.72531,535.30719 C 498.82651,532.28949 484.10211,524.47289 471.40281,524.55869 L 383.99671,525.14919 C 378.09061,525.18909 374.27391,529.46999 372.18511,534.99519 z" />
    <path
       style="font-size:12px;fill:#ff9955;fill-rule:evenodd"
       sodipodi:nodetypes="ccccccc"
       id="path651"
       d="M 160.04771,683.24809 L 158.27591,686.79159 L 435.84981,686.20099 C 597.07891,686.20099 653.74001,651.95729 693.30901,651.95729 C 693.30901,650.77619 693.30901,649.59499 693.30901,648.41379 C 653.74001,648.41379 597.07891,682.65749 435.84981,682.65749 L 160.04771,683.24809 z" />
    <rect
       y="592.67041"
       x="334.54901"
       width="8.2681637"
       transform="matrix(0.9304539,0.366409,-0.366409,0.9304539,0,0)"
       style="font-size:12px;fill:url(#linearGradient3999);fill-rule:evenodd"
       ry="8.2681293"
       id="rect652"
       height="67.326492" />
    <rect
       y="585.31299"
       x="353.23239"
       width="8.2681646"
       transform="matrix(0.9304539,0.366409,-0.366409,0.9304539,0,0)"
       style="font-size:12px;fill:url(#linearGradient4001);fill-rule:evenodd"
       ry="8.2681303"
       id="rect655"
       height="67.3265" />
    <rect
       y="579.05463"
       x="372.34854"
       width="8.2681646"
       transform="matrix(0.9304539,0.366409,-0.366409,0.9304539,0,0)"
       style="font-size:12px;fill:url(#linearGradient4003);fill-rule:evenodd"
       ry="8.2681303"
       id="rect654"
       height="67.3265" />
    <path
       style="font-size:12px;fill:url(#linearGradient4005);fill-rule:evenodd;stroke:#000000;stroke-width:2;stroke-miterlimit:4;stroke-dasharray:none;stroke-opacity:1"
       sodipodi:nodetypes="ccscss"
       id="path700"
       d="M 682.41091,688.85779 C 668.99681,721.27999 654.67041,735.55759 639.52361,756.71919 L 75.35356,752.34559 C 63.32203,752.25229 44.208814,735.20499 55.28925,715.37829 L 554.19301,716.08049 C 608.25351,716.15659 685.95861,680.08999 682.41091,688.85779 z" />
    <path
       style="font-size:12px;fill:url(#linearGradient4007);fill-rule:evenodd"
       sodipodi:nodetypes="cccccc"
       id="path702"
       d="M 77.938564,715.13588 L 72.48319,728.98536 C 70.804853,733.24731 71.169255,737.35403 73.300273,738.19322 C 75.431199,739.03237 78.49794,736.27681 80.176276,732.01487 L 87.093303,715.24215 C 84.250521,714.37148 79.528476,714.33612 77.938564,715.13588 z" />
    <path
       style="font-size:12px;fill:url(#linearGradient4009);fill-rule:evenodd"
       sodipodi:nodetypes="cccccc"
       id="path705"
       d="M 118.23754,715.13589 L 112.78216,728.98539 C 111.10383,733.24729 111.46823,737.35399 113.59925,738.19319 C 115.73017,739.03239 118.79692,736.27679 120.47525,732.01489 L 127.39228,715.24209 C 124.5495,714.37149 119.82745,714.33609 118.23754,715.13589 z" />
    <path
       style="font-size:12px;fill:url(#linearGradient4011);fill-rule:evenodd"
       sodipodi:nodetypes="cccccc"
       id="path706"
       d="M 97.56604,715.34469 L 92.11067,729.19419 C 90.43233,733.45609 90.79673,737.56279 92.92775,738.40199 C 95.05868,739.24119 98.12542,736.48559 99.80376,732.22369 L 106.72078,715.45099 C 103.878,714.58029 99.15596,714.54489 97.56604,715.34469 z" />
    <path
       style="font-size:12px;fill:#ff9955;fill-rule:evenodd"
       sodipodi:nodetypes="ccccccc"
       id="path3461"
       d="M 156.01312,699.04709 L 154.24132,702.59059 L 431.81522,701.99999 C 593.04432,701.99999 649.70542,667.75629 689.27442,667.75629 C 689.27442,666.57519 689.27442,665.39399 689.27442,664.21279 C 649.70542,664.21279 593.04432,698.45649 431.81522,698.45649 L 156.01312,699.04709 z" />
    <path
       style="font-size:12px;fill:#ff9955;fill-rule:evenodd"
       sodipodi:nodetypes="ccccccc"
       id="path3463"
       d="M 162.22457,666.12637 L 160.45277,669.66987 L 438.02667,669.07927 C 599.25577,669.07927 655.91687,634.83557 695.48587,634.83557 C 695.48587,633.65447 695.48587,632.47327 695.48587,631.29207 C 655.91687,631.29207 599.25577,665.53577 438.02667,665.53577 L 162.22457,666.12637 z" />
    <path
       style="font-size:12px;fill:url(#radialGradient4013);fill-opacity:1;fill-rule:evenodd;stroke:#000000;stroke-opacity:1"
       id="path687"
       d="M 377.31103,543.33285 C 374.36643,543.33285 372.98053,545.87305 371.99583,548.64805 L 365.49943,566.95625 C 364.51473,569.73135 367.87003,572.27135 370.81463,572.27135 L 397.39093,572.27135 C 400.33553,572.27135 402.70613,569.90085 402.70613,566.95625 L 402.70613,548.64805 C 402.70613,545.70345 400.33553,543.33285 397.39093,543.33285 L 377.31103,543.33285 z M 415.69883,543.33285 C 412.75423,543.33285 410.38363,545.70345 410.38363,548.64805 L 410.38363,566.95625 C 410.38363,569.90085 412.75423,572.27145 415.69883,572.27145 L 435.77883,572.27145 C 438.72343,572.27145 441.09403,569.90085 441.09403,566.95625 L 441.09403,548.64805 C 441.09403,545.70345 438.72343,543.33285 435.77883,543.33285 L 415.69883,543.33285 z M 455.85863,542.15175 C 452.91383,542.15175 450.62983,544.52365 450.54323,547.46695 L 449.95273,567.54675 C 449.86623,570.49015 452.32333,572.86195 455.26803,572.86195 L 500.44743,572.86195 C 503.39213,572.86195 506.31133,566.43615 504.28623,564.29855 L 488.34053,547.46695 C 486.31553,545.32945 481.24523,542.15175 478.30063,542.15175 L 455.85863,542.15175 z M 494.13793,541.09765 C 491.48823,541.03355 491.32433,543.49875 493.00193,545.28945 L 514.76193,568.51755 C 516.43953,570.30835 518.86653,572.16925 521.31623,572.31135 L 527.72933,572.68325 L 497.30293,541.17415 L 494.13793,541.09765 z" />
  </g>
</svg>
