<?xml version="1.0" encoding="UTF-8" standalone="no"?>
<!-- Created with Sodipodi ("http://www.sodipodi.com/") -->
<svg
   xmlns:dc="http://purl.org/dc/elements/1.1/"
   xmlns:cc="http://creativecommons.org/ns#"
   xmlns:rdf="http://www.w3.org/1999/02/22-rdf-syntax-ns#"
   xmlns:svg="http://www.w3.org/2000/svg"
   xmlns="http://www.w3.org/2000/svg"
   xmlns:xlink="http://www.w3.org/1999/xlink"
   xmlns:sodipodi="http://sodipodi.sourceforge.net/DTD/sodipodi-0.dtd"
   xmlns:inkscape="http://www.inkscape.org/namespaces/inkscape"
   height="75.915871"
   id="svg602"
   sodipodi:docbase="/root/img/svg"
   sodipodi:docname="finish.svg"
   sodipodi:version="0.32"
   space="preserve"
   width="42.866001"
   inkscape:version="0.46"
   inkscape:output_extension="org.inkscape.output.svg.inkscape"
   version="1.0">
  <sodipodi:namedview
     id="base"
     showgrid="false"
     inkscape:zoom="3.219857"
     inkscape:cx="35.954707"
     inkscape:cy="92.82969"
     inkscape:window-width="1278"
     inkscape:window-height="970"
     inkscape:window-x="0"
     inkscape:window-y="24"
     inkscape:current-layer="svg602" />
  <metadata
     id="metadata3">
    <rdf:RDF>
      <cc:Work
         rdf:about="">
        <dc:title>Drinking Glass, with Red Punch</dc:title>
        <dc:description />
        <dc:subject>
          <rdf:Bag>
            <rdf:li>hash</rdf:li>
            <rdf:li />
            <rdf:li>food</rdf:li>
            <rdf:li>beverage</rdf:li>
          </rdf:Bag>
        </dc:subject>
        <dc:publisher>
          <cc:Agent
             rdf:about="http://www.openclipart.org">
            <dc:title>Nathan Eady</dc:title>
          </cc:Agent>
        </dc:publisher>
        <dc:creator>
          <cc:Agent>
            <dc:title>Nathan Eady</dc:title>
          </cc:Agent>
        </dc:creator>
        <dc:rights>
          <cc:Agent>
            <dc:title>Nathan Eady</dc:title>
          </cc:Agent>
        </dc:rights>
        <dc:date />
        <dc:format>image/svg+xml</dc:format>
        <dc:type
           rdf:resource="http://purl.org/dc/dcmitype/StillImage" />
        <cc:license
           rdf:resource="http://web.resource.org/cc/PublicDomain" />
        <dc:language>en</dc:language>
      </cc:Work>
      <cc:License
         rdf:about="http://web.resource.org/cc/PublicDomain">
        <cc:permits
           rdf:resource="http://web.resource.org/cc/Reproduction" />
        <cc:permits
           rdf:resource="http://web.resource.org/cc/Distribution" />
        <cc:permits
           rdf:resource="http://web.resource.org/cc/DerivativeWorks" />
      </cc:License>
    </rdf:RDF>
  </metadata>
  <defs
     id="defs604">
    <inkscape:perspective
       sodipodi:type="inkscape:persp3d"
       inkscape:vp_x="0 : 526.18109 : 1"
       inkscape:vp_y="0 : 1000 : 0"
       inkscape:vp_z="744.09448 : 526.18109 : 1"
       inkscape:persp3d-origin="372.04724 : 350.78739 : 1"
       id="perspective25" />
    <linearGradient
       id="linearGradient637">
      <stop
         id="stop638"
         offset="0"
         style="stop-color:#de0000;stop-opacity:1;" />
      <stop
         id="stop639"
         offset="1"
         style="stop-color:#dd0000;stop-opacity:1;" />
    </linearGradient>
    <linearGradient
       id="linearGradient631">
      <stop
         id="stop632"
         offset="0"
         style="stop-color:#bf0000;stop-opacity:1;" />
      <stop
         id="stop633"
         offset="1"
         style="stop-color:#ff0000;stop-opacity:1;" />
    </linearGradient>
    <linearGradient
       id="linearGradient626">
      <stop
         id="stop627"
         offset="0"
         style="stop-color:#000;stop-opacity:1;" />
      <stop
         id="stop628"
         offset="1"
         style="stop-color:#fff;stop-opacity:1;" />
    </linearGradient>
    <linearGradient
       id="linearGradient629"
       x1="282.3689"
       x2="685.23462"
       xlink:href="#linearGradient631"
       y1="100.29416"
       y2="100.29416"
       gradientTransform="matrix(0.7959183,0,0,-1.2564103,-26.352976,1014.688)"
       gradientUnits="userSpaceOnUse" />
    <radialGradient
       cx="0.50000006"
       cy="0.49999991"
       fx="0.50000006"
       fy="0.49999991"
       id="radialGradient630"
       r="0.49999997"
       xlink:href="#linearGradient631" />
    <linearGradient
       id="linearGradient635"
       x1="134.92825"
       x2="291.51196"
       xlink:href="#linearGradient631"
       y1="622.31165"
       y2="622.31165"
       gradientTransform="scale(1.7993496,0.5557564)"
       gradientUnits="userSpaceOnUse" />
    <linearGradient
       id="linearGradient636"
       x1="134.92825"
       x2="291.51196"
       xlink:href="#linearGradient637"
       y1="622.31165"
       y2="622.31165"
       gradientTransform="scale(1.7993496,0.5557564)"
       gradientUnits="userSpaceOnUse" />
    <linearGradient
       id="linearGradient640"
       xlink:href="#linearGradient637"
       gradientTransform="matrix(0.7959183,0,0,-1.2564103,-26.352976,1014.688)"
       x1="282.3688"
       y1="301.72693"
       x2="685.23438"
       y2="301.72693"
       gradientUnits="userSpaceOnUse" />
    <inkscape:perspective
       id="perspective2407"
       inkscape:persp3d-origin="250 : 166.66667 : 1"
       inkscape:vp_z="500 : 250 : 1"
       inkscape:vp_y="0 : 1000 : 0"
       inkscape:vp_x="0 : 250 : 1"
       sodipodi:type="inkscape:persp3d" />
    <linearGradient
       inkscape:collect="always"
       xlink:href="#linearGradient631"
       id="linearGradient2642"
       gradientUnits="userSpaceOnUse"
       gradientTransform="matrix(0.7959183,0,0,-1.2564103,-157.15019,969.32584)"
       x1="282.3689"
       y1="100.29416"
       x2="685.23462"
       y2="100.29416" />
    <linearGradient
       inkscape:collect="always"
       xlink:href="#linearGradient637"
       id="linearGradient2644"
       gradientUnits="userSpaceOnUse"
       gradientTransform="matrix(0.7959183,0,0,-1.2564103,-157.15019,969.32584)"
       x1="282.3688"
       y1="301.72693"
       x2="685.23438"
       y2="301.72693" />
    <linearGradient
       inkscape:collect="always"
       xlink:href="#linearGradient637"
       id="linearGradient2646"
       gradientUnits="userSpaceOnUse"
       gradientTransform="scale(1.7993496,0.5557564)"
       x1="134.92825"
       y1="622.31165"
       x2="291.51196"
       y2="622.31165" />
    <linearGradient
       inkscape:collect="always"
       xlink:href="#linearGradient631"
       id="linearGradient2419"
       gradientUnits="userSpaceOnUse"
       gradientTransform="matrix(0.1193877,0,0,-0.1884615,-23.572528,145.39888)"
       x1="282.3689"
       y1="100.29416"
       x2="685.23462"
       y2="100.29416" />
    <linearGradient
       inkscape:collect="always"
       xlink:href="#linearGradient637"
       id="linearGradient2421"
       gradientUnits="userSpaceOnUse"
       gradientTransform="matrix(0.1193877,0,0,-0.1884615,-23.572528,145.39888)"
       x1="282.3688"
       y1="301.72693"
       x2="685.23438"
       y2="301.72693" />
    <linearGradient
       inkscape:collect="always"
       xlink:href="#linearGradient631"
       id="linearGradient2414"
       gradientUnits="userSpaceOnUse"
       gradientTransform="matrix(0.1193877,0,0,-0.1884615,-23.572528,145.39888)"
       x1="282.3689"
       y1="100.29416"
       x2="685.23462"
       y2="100.29416" />
    <linearGradient
       inkscape:collect="always"
       xlink:href="#linearGradient637"
       id="linearGradient2416"
       gradientUnits="userSpaceOnUse"
       gradientTransform="matrix(0.1193877,0,0,-0.1884615,-23.572528,145.39888)"
       x1="282.3688"
       y1="301.72693"
       x2="685.23438"
       y2="301.72693" />
    <linearGradient
       inkscape:collect="always"
       xlink:href="#linearGradient637"
       id="linearGradient2418"
       gradientUnits="userSpaceOnUse"
       gradientTransform="scale(1.7993496,0.5557564)"
       x1="134.92825"
       y1="622.31165"
       x2="291.51196"
       y2="622.31165" />
  </defs>
  <g
     id="g2405"
     transform="scale(0.6,0.6)">
    <path
       style="font-size:12px;fill:url(#linearGradient2414);fill-opacity:1;fill-rule:evenodd;stroke:url(#linearGradient2416);stroke-width:0.15000001"
       sodipodi:nodetypes="ccccccc"
       id="path614"
       d="M 16.216245,56.925 L 10.243125,116.78916 C 9.6044404,121.47537 19.47708,126.46891 33.775545,126.42195 C 48.419835,126.46293 57.96216,121.64778 58.16106,117.3244 L 51.94206,57.45894 C 50.619735,52.053555 40.322805,50.643675 33.775545,50.64762 C 26.44716,50.650095 17.213235,52.865505 16.216245,56.925 z" />
    <path
       transform="matrix(0.1278508,0,0,-0.1500674,-14.856089,115.71345)"
       style="fill:#800000;fill-opacity:1;fill-rule:evenodd;stroke:url(#linearGradient2418);stroke-width:1pt;stroke-linecap:butt;stroke-linejoin:miter;stroke-opacity:1"
       sodipodi:type="arc"
       sodipodi:ry="42.8862"
       sodipodi:rx="140.24942"
       sodipodi:cy="389.3649"
       sodipodi:cx="383.6575"
       id="path625"
       d="M 523.90692,389.3649 A 140.24942,42.8862 0 1 1 243.40808,389.3649 A 140.24942,42.8862 0 1 1 523.90692,389.3649 z" />
    <g
       transform="matrix(0.15,0,0,0.15,-2.4837191,-6.3205935)"
       id="g2410">
      <path
         d="M 193.827,68.5149 L 209.411,50.9828 C 209.411,50.9828 224.022,50.9828 236.684,46.1128 C 249.346,41.2428 276.618,42.2168 276.618,42.2168 L 273.696,409.417 L 266.878,431.82 C 266.878,431.82 215.256,391.885 215.256,389.937 C 215.256,387.989 193.827,68.5149 193.827,68.5149 z"
         id="path632"
         style="fill:#656565;fill-opacity:1;fill-rule:evenodd;stroke:none;stroke-width:1pt;stroke-linecap:butt;stroke-linejoin:miter;stroke-opacity:1" />
      <path
         d="M 194.801,68.5149 L 208.437,432.794 L 266.878,430.846 L 262.008,60.7229 C 262.008,60.7229 232.788,56.8269 226.944,61.6969 C 221.1,66.5669 192.853,69.4889 194.801,68.5149 z"
         id="path631"
         style="fill:#5a5a5a;fill-opacity:1;fill-rule:evenodd;stroke:none;stroke-width:1pt;stroke-linecap:butt;stroke-linejoin:miter;stroke-opacity:1" />
      <path
         d="M 19.4801,134.747 L 39.9343,122.085 C 39.9343,122.085 212.334,113.319 221.1,114.293 C 229.866,115.267 229.866,119.163 235.71,119.163 C 241.554,119.163 347.72,122.085 356.487,120.137 C 365.253,118.189 426.615,125.007 433.433,127.929 C 440.251,130.851 488.951,180.526 488.951,181.5 C 488.951,182.474 486.029,198.058 486.029,198.058 C 486.029,198.058 82.7906,226.304 81.8166,226.304 C 80.8426,226.304 19.4801,135.721 19.4801,134.747 z"
         id="path630"
         style="fill:#6d6d6d;fill-opacity:1;fill-rule:evenodd;stroke:none;stroke-width:1pt;stroke-linecap:butt;stroke-linejoin:miter;stroke-opacity:1"
         transform="translate(3.896027,-14.6101)" />
      <path
         d="M 36.0383,134.747 C 36.0383,134.747 221.1,123.059 224.022,129.877 C 226.944,136.695 242.528,131.825 245.45,131.825 C 248.372,131.825 352.591,128.903 364.279,130.851 C 375.967,132.799 421.745,139.617 424.667,139.617 C 427.589,139.617 486.029,196.11 486.029,197.084 C 486.029,198.058 431.485,271.108 431.485,271.108 C 431.485,271.108 215.256,282.796 207.463,277.926 C 199.671,273.056 179.217,275.004 156.815,278.9 C 134.413,282.796 26.2982,283.77 22.4022,286.692 C 18.5061,289.615 12.6621,289.615 12.6621,289.615 C 12.6621,289.615 25.3242,257.472 28.2462,250.654 C 31.1682,243.836 40.9083,234.096 42.8563,229.226 C 44.8043,224.356 41.8823,204.876 36.0383,191.24 C 30.1942,177.604 22.4022,167.864 22.4022,151.306 C 22.4022,134.747 19.4801,134.747 19.4801,134.747 L 36.0383,134.747 z"
         id="path629"
         sodipodi:nodetypes="ccccccccccccccccc"
         style="fill:#5d5d5d;fill-opacity:1;fill-rule:evenodd;stroke:none;stroke-width:1pt;stroke-linecap:butt;stroke-linejoin:miter;stroke-opacity:1"
         transform="translate(3.896027,-14.6101)" />
    </g>
  </g>
</svg>
