<?xml version="1.0" encoding="UTF-8" standalone="no"?>
<!-- Created with Inkscape (http://www.inkscape.org/) -->

<svg
   xmlns:dc="http://purl.org/dc/elements/1.1/"
   xmlns:cc="http://creativecommons.org/ns#"
   xmlns:rdf="http://www.w3.org/1999/02/22-rdf-syntax-ns#"
   xmlns:svg="http://www.w3.org/2000/svg"
   xmlns="http://www.w3.org/2000/svg"
   xmlns:xlink="http://www.w3.org/1999/xlink"
   xmlns:sodipodi="http://sodipodi.sourceforge.net/DTD/sodipodi-0.dtd"
   xmlns:inkscape="http://www.inkscape.org/namespaces/inkscape"
   width="120.29548"
   height="36.694801"
   id="svg2"
   sodipodi:version="0.32"
   inkscape:version="0.91 r13725"
   sodipodi:docname="weed.svg"
   inkscape:output_extension="org.inkscape.output.svg.inkscape"
   version="1.0">
  <defs
     id="defs4">
    <inkscape:path-effect
       effect="powerstroke"
       id="path-effect4319"
       is_visible="true"
       offset_points="0,-1.6989349"
       sort_points="true"
       interpolator_type="Linear"
       interpolator_beta="0.2"
       start_linecap_type="zerowidth"
       linejoin_type="round"
       miter_limit="4"
       end_linecap_type="zerowidth"
       cusp_linecap_type="round" />
    <linearGradient
       id="linearGradient3302"
       inkscape:collect="always">
      <stop
         id="stop3304"
         offset="0"
         style="stop-color:#336404;stop-opacity:1" />
      <stop
         id="stop3306"
         offset="1"
         style="stop-color:#4e9a06;stop-opacity:1" />
    </linearGradient>
    <linearGradient
       id="linearGradient3294"
       inkscape:collect="always">
      <stop
         id="stop3296"
         offset="0"
         style="stop-color:#4e9a06;stop-opacity:1" />
      <stop
         id="stop3298"
         offset="1"
         style="stop-color:#336404;stop-opacity:1" />
    </linearGradient>
    <linearGradient
       id="linearGradient3284"
       inkscape:collect="always">
      <stop
         id="stop3286"
         offset="0"
         style="stop-color:#336404;stop-opacity:1" />
      <stop
         id="stop3288"
         offset="1"
         style="stop-color:#4e9a06;stop-opacity:1" />
    </linearGradient>
    <linearGradient
       inkscape:collect="always"
       id="linearGradient3228">
      <stop
         style="stop-color:#73d216;stop-opacity:1"
         offset="0"
         id="stop3230" />
      <stop
         style="stop-color:#4e9a06;stop-opacity:1"
         offset="1"
         id="stop3232" />
    </linearGradient>
    <inkscape:perspective
       sodipodi:type="inkscape:persp3d"
       inkscape:vp_x="0 : 526.18109 : 1"
       inkscape:vp_y="0 : 1000 : 0"
       inkscape:vp_z="744.09448 : 526.18109 : 1"
       inkscape:persp3d-origin="372.04724 : 350.78739 : 1"
       id="perspective10" />
    <inkscape:perspective
       id="perspective2447"
       inkscape:persp3d-origin="372.04724 : 350.78739 : 1"
       inkscape:vp_z="744.09448 : 526.18109 : 1"
       inkscape:vp_y="0 : 1000 : 0"
       inkscape:vp_x="0 : 526.18109 : 1"
       sodipodi:type="inkscape:persp3d" />
    <linearGradient
       inkscape:collect="always"
       xlink:href="#linearGradient3228"
       id="linearGradient2782"
       gradientUnits="userSpaceOnUse"
       gradientTransform="matrix(0.4431294,0,0,0.1848221,62.008072,69.93557)"
       x1="156.79832"
       y1="479.17892"
       x2="163.29968"
       y2="484.38736" />
    <linearGradient
       inkscape:collect="always"
       xlink:href="#linearGradient3284"
       id="linearGradient2794"
       gradientUnits="userSpaceOnUse"
       gradientTransform="matrix(-0.503405,0,0,0.2308218,218.21026,43.442827)"
       x1="168.93419"
       y1="531.35901"
       x2="156.79832"
       y2="467.65546" />
    <linearGradient
       inkscape:collect="always"
       xlink:href="#linearGradient3284"
       id="linearGradient2818"
       gradientUnits="userSpaceOnUse"
       gradientTransform="matrix(0.503405,0,0,0.1848221,56.370179,69.935567)"
       x1="168.93419"
       y1="531.35901"
       x2="156.79832"
       y2="467.65546" />
    <linearGradient
       inkscape:collect="always"
       xlink:href="#linearGradient3228"
       id="linearGradient2846"
       gradientUnits="userSpaceOnUse"
       gradientTransform="matrix(0.487664,0,0,0.2562231,70.318666,28.813358)"
       x1="160.93347"
       y1="480.74234"
       x2="165.80095"
       y2="482.06631" />
    <linearGradient
       inkscape:collect="always"
       xlink:href="#linearGradient3294"
       id="linearGradient2852"
       gradientUnits="userSpaceOnUse"
       gradientTransform="matrix(-0.3966209,1.3300219e-2,2.5314027e-2,0.2083882,230.29941,53.98886)"
       x1="160.17586"
       y1="481.49997"
       x2="165.80095"
       y2="482.06631" />
    <linearGradient
       inkscape:collect="always"
       xlink:href="#linearGradient3228"
       id="linearGradient2501"
       gradientUnits="userSpaceOnUse"
       gradientTransform="matrix(0.487664,0,0,0.2562231,83.849656,27.992008)"
       x1="160.93347"
       y1="480.74234"
       x2="165.80095"
       y2="482.06631" />
    <linearGradient
       inkscape:collect="always"
       xlink:href="#linearGradient3302"
       id="linearGradient2503"
       gradientUnits="userSpaceOnUse"
       gradientTransform="matrix(-0.5775603,0,0,0.1580723,243.88155,84.520316)"
       x1="160.17586"
       y1="481.49997"
       x2="165.80095"
       y2="482.06631" />
    <linearGradient
       inkscape:collect="always"
       xlink:href="#linearGradient3294"
       id="linearGradient2507"
       gradientUnits="userSpaceOnUse"
       gradientTransform="matrix(0.3966209,1.3300219e-2,-2.5314027e-2,0.2083882,100.08938,53.432675)"
       x1="160.17586"
       y1="481.49997"
       x2="165.80095"
       y2="482.06631" />
    <linearGradient
       inkscape:collect="always"
       xlink:href="#linearGradient3284"
       id="linearGradient2509"
       gradientUnits="userSpaceOnUse"
       gradientTransform="matrix(0.503405,0,0,0.1848221,69.901169,69.114217)"
       x1="168.93419"
       y1="531.35901"
       x2="156.79832"
       y2="467.65546" />
    <linearGradient
       inkscape:collect="always"
       xlink:href="#linearGradient3284"
       id="linearGradient2513"
       gradientUnits="userSpaceOnUse"
       gradientTransform="matrix(-0.503405,0,0,0.2308218,231.74125,42.621477)"
       x1="168.93419"
       y1="531.35901"
       x2="156.79832"
       y2="467.65546" />
    <linearGradient
       inkscape:collect="always"
       xlink:href="#linearGradient3228"
       id="linearGradient2533"
       gradientUnits="userSpaceOnUse"
       gradientTransform="matrix(-0.5775603,0,0,0.1580723,279.38843,84.244012)"
       x1="160.17586"
       y1="481.49997"
       x2="165.80095"
       y2="482.06631" />
    <linearGradient
       inkscape:collect="always"
       xlink:href="#linearGradient3228"
       id="linearGradient2535"
       gradientUnits="userSpaceOnUse"
       gradientTransform="matrix(-0.487664,0,0,0.2562231,259.6703,28.953138)"
       x1="160.93347"
       y1="480.74234"
       x2="165.80095"
       y2="482.06631" />
    <linearGradient
       inkscape:collect="always"
       xlink:href="#linearGradient3302"
       id="linearGradient2579"
       gradientUnits="userSpaceOnUse"
       gradientTransform="matrix(-0.5775603,0,0,0.1580723,335.9822,84.930997)"
       x1="160.17586"
       y1="481.49997"
       x2="165.80095"
       y2="482.06631" />
    <linearGradient
       inkscape:collect="always"
       xlink:href="#linearGradient3294"
       id="linearGradient2583"
       gradientUnits="userSpaceOnUse"
       gradientTransform="matrix(0.3966209,1.3300219e-2,-2.5314027e-2,0.2083882,192.19004,53.84335)"
       x1="160.17586"
       y1="481.49997"
       x2="165.80095"
       y2="482.06631" />
    <linearGradient
       inkscape:collect="always"
       xlink:href="#linearGradient3228"
       id="linearGradient2587"
       gradientUnits="userSpaceOnUse"
       gradientTransform="matrix(-0.487664,0,0,0.2562231,325.40654,28.402683)"
       x1="160.93347"
       y1="480.74234"
       x2="165.80095"
       y2="482.06631" />
    <linearGradient
       inkscape:collect="always"
       xlink:href="#linearGradient3302"
       id="linearGradient2591"
       gradientUnits="userSpaceOnUse"
       gradientTransform="matrix(-0.5775603,0,0,0.1580723,322.99669,84.198025)"
       x1="160.17586"
       y1="481.49997"
       x2="165.80095"
       y2="482.06631" />
    <linearGradient
       inkscape:collect="always"
       xlink:href="#linearGradient3284"
       id="linearGradient5861"
       gradientUnits="userSpaceOnUse"
       gradientTransform="matrix(-0.95986532,0.00332158,0.00363718,1.0510676,245.85847,-52.853057)"
       x1="122.88532"
       y1="163.65005"
       x2="127.69917"
       y2="163.65005" />
    <linearGradient
       inkscape:collect="always"
       xlink:href="#linearGradient3284"
       id="linearGradient5865"
       gradientUnits="userSpaceOnUse"
       gradientTransform="matrix(1.0189146,0.2456974,-0.23820977,0.98786313,48.46496,-71.935894)"
       x1="122.88532"
       y1="163.65005"
       x2="127.69917"
       y2="163.65005" />
    <linearGradient
       inkscape:collect="always"
       xlink:href="#linearGradient3284"
       id="linearGradient5869"
       gradientUnits="userSpaceOnUse"
       gradientTransform="matrix(-0.93209,0.006833,0.00767402,1.0468141,251.43288,-52.067879)"
       x1="122.88532"
       y1="163.65005"
       x2="127.69917"
       y2="163.65005" />
    <linearGradient
       inkscape:collect="always"
       xlink:href="#linearGradient3284"
       id="linearGradient5873"
       gradientUnits="userSpaceOnUse"
       gradientTransform="matrix(0.92673315,0.05833929,-0.06790021,1.0786107,78.426791,-64.402344)"
       x1="122.88532"
       y1="163.65005"
       x2="127.69917"
       y2="163.65005" />
    <linearGradient
       inkscape:collect="always"
       xlink:href="#linearGradient3284"
       id="linearGradient5877"
       gradientUnits="userSpaceOnUse"
       gradientTransform="matrix(-0.97901075,0.00269436,0.0025444,0.92451937,272.75498,-29.69295)"
       x1="122.88532"
       y1="163.65005"
       x2="127.69917"
       y2="163.65005" />
    <linearGradient
       inkscape:collect="always"
       xlink:href="#linearGradient3284"
       id="linearGradient5881"
       gradientUnits="userSpaceOnUse"
       gradientTransform="matrix(-1.0070382,0.04507044,0.04540628,1.0145421,285.06072,-51.369863)"
       x1="122.88532"
       y1="163.65005"
       x2="127.69917"
       y2="163.65005" />
    <linearGradient
       inkscape:collect="always"
       xlink:href="#linearGradient3284"
       id="linearGradient5885"
       gradientUnits="userSpaceOnUse"
       gradientTransform="matrix(-1.054397,0.02338232,0.02468987,1.1133596,299.09059,-66.097472)"
       x1="122.88532"
       y1="163.65005"
       x2="127.69917"
       y2="163.65005" />
    <linearGradient
       inkscape:collect="always"
       xlink:href="#linearGradient3284"
       id="linearGradient5889"
       gradientUnits="userSpaceOnUse"
       gradientTransform="matrix(0.9837055,0.05925117,-0.05453623,0.90542662,47.700618,-33.01159)"
       x1="122.88532"
       y1="163.65005"
       x2="127.69917"
       y2="163.65005" />
    <linearGradient
       inkscape:collect="always"
       xlink:href="#linearGradient3284"
       id="linearGradient5893"
       gradientUnits="userSpaceOnUse"
       gradientTransform="matrix(-0.99637052,0.0303976,0.03163499,1.0369296,306.39451,-53.545815)"
       x1="122.88532"
       y1="163.65005"
       x2="127.69917"
       y2="163.65005" />
    <linearGradient
       inkscape:collect="always"
       xlink:href="#linearGradient3284"
       id="linearGradient5897"
       gradientUnits="userSpaceOnUse"
       gradientTransform="matrix(-0.95291953,-0.06553483,-0.07602725,1.1054862,288.85511,-53.366753)"
       x1="122.88532"
       y1="163.65005"
       x2="127.69917"
       y2="163.65005" />
    <linearGradient
       inkscape:collect="always"
       xlink:href="#linearGradient3284"
       id="linearGradient5901"
       gradientUnits="userSpaceOnUse"
       gradientTransform="matrix(1.0638109,-0.04738208,0.04172326,0.93676059,5.3624672,-25.861125)"
       x1="122.88532"
       y1="163.65005"
       x2="127.69917"
       y2="163.65005" />
    <linearGradient
       inkscape:collect="always"
       xlink:href="#linearGradient3284"
       id="linearGradient5905"
       gradientUnits="userSpaceOnUse"
       gradientTransform="matrix(-1.0263905,-0.05750423,-0.06282096,1.1212886,331.00558,-57.90496)"
       x1="122.88532"
       y1="163.65005"
       x2="127.69917"
       y2="163.65005" />
    <linearGradient
       inkscape:collect="always"
       xlink:href="#linearGradient3284"
       id="linearGradient5909"
       gradientUnits="userSpaceOnUse"
       gradientTransform="matrix(-0.99740474,0.03699863,0.03405345,0.91800875,281.8572,-32.748344)"
       x1="122.88532"
       y1="163.65005"
       x2="127.69917"
       y2="163.65005" />
    <linearGradient
       inkscape:collect="always"
       xlink:href="#linearGradient3284"
       id="linearGradient5913"
       gradientUnits="userSpaceOnUse"
       gradientTransform="matrix(1.051485,-0.03051151,0.02536777,0.87422176,4.87578,-16.355964)"
       x1="122.88532"
       y1="163.65005"
       x2="127.69917"
       y2="163.65005" />
    <linearGradient
       inkscape:collect="always"
       xlink:href="#linearGradient3284"
       id="linearGradient5917"
       gradientUnits="userSpaceOnUse"
       gradientTransform="matrix(-1.0101359,0.0370269,0.03563665,0.97220837,304.9573,-42.82907)"
       x1="122.88532"
       y1="163.65005"
       x2="127.69917"
       y2="163.65005" />
    <linearGradient
       inkscape:collect="always"
       xlink:href="#linearGradient3284"
       id="linearGradient5921"
       gradientUnits="userSpaceOnUse"
       gradientTransform="matrix(-1.0263905,-0.05750423,-0.06282096,1.1212886,336.15362,-57.578798)"
       x1="122.88532"
       y1="163.65005"
       x2="127.69917"
       y2="163.65005" />
    <linearGradient
       inkscape:collect="always"
       xlink:href="#linearGradient3284"
       id="linearGradient5925"
       gradientUnits="userSpaceOnUse"
       gradientTransform="matrix(-1.0263905,-0.05750423,-0.06282096,1.1212886,315.90362,-57.828798)"
       x1="122.88532"
       y1="163.65005"
       x2="127.69917"
       y2="163.65005" />
    <linearGradient
       inkscape:collect="always"
       xlink:href="#linearGradient3284"
       id="linearGradient5929"
       gradientUnits="userSpaceOnUse"
       gradientTransform="matrix(1.0263905,-0.05750423,0.06282096,1.1212886,57.257354,-57.953798)"
       x1="122.88532"
       y1="163.65005"
       x2="127.69917"
       y2="163.65005" />
    <linearGradient
       inkscape:collect="always"
       xlink:href="#linearGradient3284"
       id="linearGradient5937"
       gradientUnits="userSpaceOnUse"
       gradientTransform="matrix(-1.0263905,-0.05750423,-0.06282096,1.1212886,345.02862,-57.828798)"
       x1="122.88532"
       y1="163.65005"
       x2="127.69917"
       y2="163.65005" />
    <linearGradient
       inkscape:collect="always"
       xlink:href="#linearGradient3284"
       id="linearGradient5941"
       gradientUnits="userSpaceOnUse"
       gradientTransform="matrix(1.0263905,-0.05750423,0.06282096,1.1212886,70.757354,-57.078798)"
       x1="122.88532"
       y1="163.65005"
       x2="127.69917"
       y2="163.65005" />
    <linearGradient
       inkscape:collect="always"
       xlink:href="#linearGradient3284"
       id="linearGradient5947"
       gradientUnits="userSpaceOnUse"
       gradientTransform="matrix(1.0263905,-0.05750423,0.06282096,1.1212886,76.007354,-56.578798)"
       x1="122.88532"
       y1="163.65005"
       x2="127.69917"
       y2="163.65005" />
    <linearGradient
       inkscape:collect="always"
       xlink:href="#linearGradient3302"
       id="linearGradient5861-8"
       gradientUnits="userSpaceOnUse"
       gradientTransform="matrix(-0.94424629,-0.17248596,-0.18887484,1.0339645,274.32225,-28.108828)"
       x1="122.88532"
       y1="163.65005"
       x2="127.69917"
       y2="163.65005" />
    <linearGradient
       inkscape:collect="always"
       xlink:href="#linearGradient3302"
       id="linearGradient5861-8-0"
       gradientUnits="userSpaceOnUse"
       gradientTransform="matrix(0.94424629,-0.17248596,0.18887484,1.0339645,-21.334437,-27.454428)"
       x1="122.88532"
       y1="163.65005"
       x2="127.69917"
       y2="163.65005" />
  </defs>
  <sodipodi:namedview
     id="base"
     pagecolor="#ffffff"
     bordercolor="#666666"
     borderopacity="1.0"
     inkscape:pageopacity="0.0"
     inkscape:pageshadow="2"
     inkscape:zoom="2.0000001"
     inkscape:cx="23.147668"
     inkscape:cy="-9.8529454"
     inkscape:document-units="px"
     inkscape:current-layer="layer1"
     showgrid="false"
     showguides="true"
     inkscape:guide-bbox="true"
     inkscape:window-width="1272"
     inkscape:window-height="915"
     inkscape:window-x="0"
     inkscape:window-y="25"
     inkscape:window-maximized="0">
    <sodipodi:guide
       orientation="0,1"
       position="182.5,400.5"
       id="guide3485" />
  </sodipodi:namedview>
  <metadata
     id="metadata7">
    <rdf:RDF>
      <cc:Work
         rdf:about="">
        <dc:format>image/svg+xml</dc:format>
        <dc:type
           rdf:resource="http://purl.org/dc/dcmitype/StillImage" />
      </cc:Work>
    </rdf:RDF>
  </metadata>
  <g
     inkscape:label="Capa 1"
     inkscape:groupmode="layer"
     id="layer1"
     transform="translate(-120.33049,-100.94821)">
    <path
       inkscape:connector-curvature="0"
       inkscape:tile-y0="40.24327"
       inkscape:tile-x0="2.55719"
       id="use5680"
       d="m 128.56027,137.53447 c -0.81589,-6.68691 -1.6318,-13.37383 -2.4477,-20.06073 a 0.11791505,0.00159812 83.145623 0 0 -0.0135,-0.10065 c -1.61545,-7.13046 -3.2309,-14.26092 -4.84635,-21.391386 1.07869,7.221116 2.15738,14.442236 3.23606,21.663356 0.0246,0.60414 0.82278,20.20353 0.82278,20.20353 z"
       style="fill:url(#linearGradient5861);fill-opacity:1;fill-rule:evenodd;stroke:none;stroke-width:1px;stroke-linecap:butt;stroke-linejoin:miter;stroke-opacity:1" />
    <path
       inkscape:connector-curvature="0"
       inkscape:tile-y0="40.24327"
       inkscape:tile-x0="2.55719"
       id="use5682"
       d="m 130.62085,136.81249 c 2.35763,-6.08446 4.71527,-12.16892 7.0729,-18.25338 a 0.00174183,0.11421112 21.066025 0 1 0.0368,-0.0913 c 3.30589,-6.29967 6.61177,-12.59933 9.91766,-18.899005 -2.7559,6.520605 -5.51181,13.041205 -8.2677,19.561805 -0.16088,0.56211 -5.3786,18.79836 -5.3786,18.79836 z"
       style="fill:url(#linearGradient5865);fill-opacity:1;fill-rule:evenodd;stroke:none;stroke-width:1px;stroke-linecap:butt;stroke-linejoin:miter;stroke-opacity:1" />
    <path
       inkscape:connector-curvature="0"
       inkscape:tile-y0="40.24327"
       inkscape:tile-x0="2.55719"
       id="use5684"
       d="m 138.27758,137.98234 c -0.81865,-6.65694 -1.6373,-13.31388 -2.45596,-19.97081 a 0.11740138,0.00155242 83.088837 0 0 -0.0135,-0.10019 c -1.59683,-7.09577 -3.19365,-14.19153 -4.79048,-21.287299 1.07594,7.188029 2.15189,14.376049 3.22783,21.564079 0.0263,0.60161 0.8786,20.11901 0.8786,20.11901 z"
       style="fill:url(#linearGradient5869);fill-opacity:1;fill-rule:evenodd;stroke:none;stroke-width:1px;stroke-linecap:butt;stroke-linejoin:miter;stroke-opacity:1" />
    <path
       inkscape:connector-curvature="0"
       inkscape:tile-y0="40.24327"
       inkscape:tile-x0="2.55719"
       id="use5686"
       d="m 180.03799,137.72457 c 1.19754,-6.81678 2.39509,-13.63356 3.59263,-20.45032 a 0.0015472,0.12115024 9.867457 0 1 0.0192,-0.10253 c 1.99684,-7.22629 3.99368,-14.45256 5.99052,-21.678845 -1.48404,7.350045 -2.96809,14.700095 -4.45213,22.050145 -0.0608,0.61868 -2.0322,20.68987 -2.0322,20.68987 z"
       style="fill:url(#linearGradient5873);fill-opacity:1;fill-rule:evenodd;stroke:none;stroke-width:1px;stroke-linecap:butt;stroke-linejoin:miter;stroke-opacity:1" />
    <path
       inkscape:connector-curvature="0"
       inkscape:tile-y0="40.24327"
       inkscape:tile-x0="2.55719"
       id="use5688"
       d="m 152.90652,137.74404 c -0.82475,-5.882 -1.64951,-11.764 -2.47427,-17.64599 a 0.1039577,0.00162623 82.135602 0 0 -0.0137,-0.0885 c -1.63976,-6.27233 -3.27952,-12.54466 -4.91928,-18.817 1.09219,6.35195 2.18439,12.7039 3.27657,19.05584 0.0245,0.53141 0.81679,17.77121 0.81679,17.77121 z"
       style="fill:url(#linearGradient5877);fill-opacity:1;fill-rule:evenodd;stroke:none;stroke-width:1px;stroke-linecap:butt;stroke-linejoin:miter;stroke-opacity:1" />
    <path
       inkscape:connector-curvature="0"
       inkscape:tile-y0="40.24327"
       inkscape:tile-x0="2.55719"
       id="use5690"
       d="m 169.51527,137.54614 c -1.12069,-6.41996 -2.2414,-12.83993 -3.36211,-19.25988 a 0.1140694,0.00167629 80.208419 0 0 -0.0181,-0.0966 c -1.97721,-6.8133 -3.95442,-13.62659 -5.93163,-20.439881 1.41757,6.924221 2.83516,13.848441 4.25274,20.772671 0.0498,0.58216 1.66276,19.4686 1.66276,19.4686 z"
       style="fill:url(#linearGradient5881);fill-opacity:1;fill-rule:evenodd;stroke:none;stroke-width:1px;stroke-linecap:butt;stroke-linejoin:miter;stroke-opacity:1" />
    <path
       inkscape:connector-curvature="0"
       inkscape:tile-y0="40.24327"
       inkscape:tile-x0="2.55719"
       id="use5692"
       d="m 173.98086,138.01448 c -1.02796,-7.06681 -2.05593,-14.13362 -3.0839,-21.20042 a 0.12499658,0.00175504 81.829308 0 0 -0.0168,-0.10634 c -1.91504,-7.52013 -3.83009,-15.04026 -5.74513,-22.560397 1.32716,7.627277 2.65434,15.254557 3.9815,22.881827 0.039,0.63948 1.30165,21.38532 1.30165,21.38532 z"
       style="fill:url(#linearGradient5885);fill-opacity:1;fill-rule:evenodd;stroke:none;stroke-width:1px;stroke-linecap:butt;stroke-linejoin:miter;stroke-opacity:1" />
    <path
       inkscape:connector-curvature="0"
       inkscape:tile-y0="40.24327"
       inkscape:tile-x0="2.55719"
       id="use5694"
       d="m 158.72854,137.92454 c 1.15953,-5.71377 2.31908,-11.42754 3.47862,-17.1413 a 0.00163621,0.10204321 11.351472 0 1 0.0187,-0.0859 c 2.00052,-6.04898 4.00105,-12.09795 6.00157,-18.14693 -1.45472,6.15862 -2.90945,12.31725 -4.36417,18.47587 -0.0545,0.5191 -1.81997,17.3598 -1.81997,17.3598 z"
       style="fill:url(#linearGradient5889);fill-opacity:1;fill-rule:evenodd;stroke:none;stroke-width:1px;stroke-linecap:butt;stroke-linejoin:miter;stroke-opacity:1" />
    <path
       inkscape:connector-curvature="0"
       inkscape:tile-y0="40.24327"
       inkscape:tile-x0="2.55719"
       id="use5696"
       d="m 189.67084,137.61359 c -1.02424,-6.57457 -2.04849,-13.14914 -3.07274,-19.72369 a 0.11646609,0.00165847 81.252315 0 0 -0.0167,-0.0989 c -1.86603,-6.98961 -3.73206,-13.97921 -5.5981,-20.96882 1.31121,7.09422 2.62243,14.18843 3.93363,21.28265 0.0416,0.59538 1.38965,19.9105 1.38965,19.9105 z"
       style="fill:url(#linearGradient5893);fill-opacity:1;fill-rule:evenodd;stroke:none;stroke-width:1px;stroke-linecap:butt;stroke-linejoin:miter;stroke-opacity:1" />
    <path
       inkscape:connector-curvature="0"
       inkscape:tile-y0="40.24327"
       inkscape:tile-x0="2.55719"
       id="use5698"
       d="m 158.0112,138.39527 c -0.30312,-7.09013 -0.60626,-14.18027 -0.90939,-21.27039 a 0.12422115,0.00159146 87.648577 0 0 -0.006,-0.10681 c -1.06308,-7.61404 -2.12615,-15.22807 -3.18923,-22.842113 0.52347,7.670763 1.04694,15.341533 1.57041,23.012293 -0.0213,0.63704 -0.71417,21.3037 -0.71417,21.3037 z"
       style="fill:url(#linearGradient5897);fill-opacity:1;fill-rule:evenodd;stroke:none;stroke-width:1px;stroke-linecap:butt;stroke-linejoin:miter;stroke-opacity:1" />
    <path
       inkscape:connector-curvature="0"
       inkscape:tile-y0="40.24327"
       inkscape:tile-x0="2.55719"
       id="use5700"
       d="m 143.63316,137.63468 c 0.61303,-6.00127 1.22608,-12.00254 1.83913,-18.0038 a 0.00176646,0.10558039 5.7074147 0 1 0.0106,-0.0904 c 1.47975,-6.43843 2.9595,-12.87686 4.43925,-19.3153 -0.88099,6.49106 -1.76199,12.98213 -2.64299,19.47319 -10e-4,0.53962 -0.0323,18.04581 -0.0323,18.04581 z"
       style="fill:url(#linearGradient5901);fill-opacity:1;fill-rule:evenodd;stroke:none;stroke-width:1px;stroke-linecap:butt;stroke-linejoin:miter;stroke-opacity:1" />
    <path
       inkscape:connector-curvature="0"
       inkscape:tile-y0="40.24327"
       inkscape:tile-x0="2.55719"
       id="use5702"
       d="m 193.52001,137.70019 c -0.44785,-7.18408 -0.89572,-14.36816 -1.34358,-21.55222 a 0.12599335,0.0017115 86.535126 0 0 -0.008,-0.10821 c -1.2745,-7.70802 -2.549,-15.41603 -3.8235,-23.12405 0.6949,7.77057 1.3898,15.54114 2.0847,23.31171 -0.012,0.64594 -0.40267,21.6012 -0.40267,21.6012 z"
       style="fill:url(#linearGradient5905);fill-opacity:1;fill-rule:evenodd;stroke:none;stroke-width:1px;stroke-linecap:butt;stroke-linejoin:miter;stroke-opacity:1" />
    <path
       inkscape:connector-curvature="0"
       inkscape:tile-y0="40.24327"
       inkscape:tile-x0="2.55719"
       id="use5704"
       d="m 165.44357,137.72743 c -1.04048,-5.81223 -2.08098,-11.62446 -3.12147,-17.43668 a 0.10334516,0.00165713 79.970802 0 0 -0.0169,-0.0874 c -1.88416,-6.17129 -3.76833,-12.34256 -5.6525,-18.51385 1.32897,6.26954 2.65794,12.53908 3.98691,18.80862 0.043,0.52686 1.43695,17.61914 1.43695,17.61914 z"
       style="fill:url(#linearGradient5909);fill-opacity:1;fill-rule:evenodd;stroke:none;stroke-width:1px;stroke-linecap:butt;stroke-linejoin:miter;stroke-opacity:1" />
    <path
       inkscape:connector-curvature="0"
       inkscape:tile-y0="40.24327"
       inkscape:tile-x0="2.55719"
       id="use5706"
       d="m 138.67553,137.90919 c 0.70695,-5.58929 1.41392,-11.17859 2.12088,-16.76788 a 0.00174281,0.09859918 7.0767292 0 1 0.012,-0.0842 c 1.57037,-5.98588 3.14073,-11.97176 4.7111,-17.95764 -0.97989,6.04266 -1.95978,12.08533 -2.93967,18.128 -0.0101,0.50327 -0.33703,16.83031 -0.33703,16.83031 z"
       style="fill:url(#linearGradient5913);fill-opacity:1;fill-rule:evenodd;stroke:none;stroke-width:1px;stroke-linecap:butt;stroke-linejoin:miter;stroke-opacity:1" />
    <path
       inkscape:connector-curvature="0"
       inkscape:tile-y0="40.24327"
       inkscape:tile-x0="2.55719"
       id="use5708"
       d="m 187.26533,137.4467 c -1.06107,-6.15716 -2.12216,-12.31433 -3.18324,-18.47149 a 0.10935642,0.00167962 80.337438 0 0 -0.0173,-0.0926 c -1.91601,-6.53921 -3.83203,-13.07841 -5.74804,-19.617622 1.35382,6.642062 2.70766,13.284122 4.06148,19.926182 0.0442,0.55802 1.47737,18.66107 1.47737,18.66107 z"
       style="fill:url(#linearGradient5917);fill-opacity:1;fill-rule:evenodd;stroke:none;stroke-width:1px;stroke-linecap:butt;stroke-linejoin:miter;stroke-opacity:1" />
    <path
       inkscape:connector-curvature="0"
       inkscape:tile-y0="40.24327"
       inkscape:tile-x0="2.55719"
       id="use5702-7"
       d="m 198.66805,138.02636 c -0.44786,-7.18408 -0.89572,-14.36816 -1.34358,-21.55223 a 0.12599335,0.0017115 86.535126 0 0 -0.008,-0.10821 c -1.2745,-7.70802 -2.549,-15.41603 -3.82349,-23.124048 0.69489,7.770568 1.3898,15.541138 2.08469,23.311718 -0.012,0.64593 -0.40266,21.60119 -0.40266,21.60119 z"
       style="fill:url(#linearGradient5921);fill-opacity:1;fill-rule:evenodd;stroke:none;stroke-width:1px;stroke-linecap:butt;stroke-linejoin:miter;stroke-opacity:1" />
    <path
       inkscape:connector-curvature="0"
       inkscape:tile-y0="40.24327"
       inkscape:tile-x0="2.55719"
       id="use5702-7-5"
       d="m 178.41805,137.77636 c -0.44786,-7.18408 -0.89572,-14.36816 -1.34358,-21.55223 a 0.12599335,0.0017115 86.535126 0 0 -0.008,-0.10821 c -1.2745,-7.70802 -2.549,-15.41603 -3.82349,-23.124048 0.69489,7.770568 1.3898,15.541138 2.08469,23.311718 -0.012,0.64593 -0.40266,21.60119 -0.40266,21.60119 z"
       style="fill:url(#linearGradient5925);fill-opacity:1;fill-rule:evenodd;stroke:none;stroke-width:1px;stroke-linecap:butt;stroke-linejoin:miter;stroke-opacity:1" />
    <path
       inkscape:connector-curvature="0"
       inkscape:tile-y0="40.24327"
       inkscape:tile-x0="2.55719"
       id="use5702-7-9"
       d="m 194.74292,137.65136 c 0.44786,-7.18408 0.89572,-14.36816 1.34358,-21.55223 a 0.0017115,0.12599335 3.4648737 0 1 0.008,-0.10821 c 1.2745,-7.70802 2.54899,-15.41603 3.82349,-23.124048 -0.69489,7.770568 -1.3898,15.541138 -2.08469,23.311718 0.012,0.64593 0.40266,21.60119 0.40266,21.60119 z"
       style="fill:url(#linearGradient5929);fill-opacity:1;fill-rule:evenodd;stroke:none;stroke-width:1px;stroke-linecap:butt;stroke-linejoin:miter;stroke-opacity:1" />
    <path
       inkscape:connector-curvature="0"
       inkscape:tile-y0="40.24327"
       inkscape:tile-x0="2.55719"
       id="use5702-7-3"
       d="m 207.54305,137.77636 c -0.44786,-7.18408 -0.89572,-14.36816 -1.34358,-21.55223 a 0.12599335,0.0017115 86.535126 0 0 -0.008,-0.10821 c -1.2745,-7.70802 -2.549,-15.41603 -3.82349,-23.124048 0.69489,7.770568 1.3898,15.541138 2.08469,23.311718 -0.012,0.64593 -0.40266,21.60119 -0.40266,21.60119 z"
       style="fill:url(#linearGradient5937);fill-opacity:1;fill-rule:evenodd;stroke:none;stroke-width:1px;stroke-linecap:butt;stroke-linejoin:miter;stroke-opacity:1" />
    <path
       inkscape:connector-curvature="0"
       inkscape:tile-y0="40.24327"
       inkscape:tile-x0="2.55719"
       id="use5702-7-6"
       d="m 208.24292,138.52636 c 0.44786,-7.18408 0.89572,-14.36816 1.34358,-21.55223 a 0.0017115,0.12599335 3.4648737 0 1 0.008,-0.10821 c 1.2745,-7.70802 2.54899,-15.41603 3.82349,-23.124048 -0.69489,7.770568 -1.3898,15.541138 -2.08469,23.311718 0.012,0.64593 0.40266,21.60119 0.40266,21.60119 z"
       style="fill:url(#linearGradient5941);fill-opacity:1;fill-rule:evenodd;stroke:none;stroke-width:1px;stroke-linecap:butt;stroke-linejoin:miter;stroke-opacity:1" />
    <path
       inkscape:connector-curvature="0"
       inkscape:tile-y0="40.24327"
       inkscape:tile-x0="2.55719"
       id="use5702-7-1"
       d="m 213.49292,139.02636 c 0.44786,-7.18408 0.89572,-14.36816 1.34358,-21.55223 a 0.0017115,0.12599335 3.4648737 0 1 0.008,-0.10821 c 1.2745,-7.70802 2.54899,-15.41603 3.82349,-23.124048 -0.69489,7.770568 -1.3898,15.541138 -2.08469,23.311718 0.012,0.64593 0.40266,21.60119 0.40266,21.60119 z"
       style="fill:url(#linearGradient5947);fill-opacity:1;fill-rule:evenodd;stroke:none;stroke-width:1px;stroke-linecap:butt;stroke-linejoin:miter;stroke-opacity:1" />
    <use
       x="0"
       y="0"
       inkscape:tiled-clone-of="#use5702-7-1"
       xlink:href="#use5702-7-1"
       transform="matrix(0.99541946,-0.02789345,0.0283088,1.010242,-0.01279146,2.4123729)"
       id="use5831"
       width="100%"
       height="100%" />
    <use
       x="0"
       y="0"
       inkscape:tiled-clone-of="#use5702-7-1"
       xlink:href="#use5702-7-1"
       transform="matrix(0.99000994,0.06252439,-0.05878582,0.93081355,12.039071,-4.4957636)"
       id="use5833"
       width="100%"
       height="100%" />
    <use
       x="0"
       y="0"
       inkscape:tiled-clone-of="#use5702-7-1"
       xlink:href="#use5702-7-1"
       transform="matrix(1.0083415,0.02545939,-0.02211294,0.87580271,10.094273,10.573866)"
       id="use5835"
       width="100%"
       height="100%"
       inkscape:tile-cx="105.06758"
       inkscape:tile-cy="17.458145"
       inkscape:tile-w="9.2584843"
       inkscape:tile-h="39.094411"
       inkscape:tile-x0="100.43834"
       inkscape:tile-y0="-2.0890606" />
    <use
       x="0"
       y="0"
       inkscape:tiled-clone-of="#use5702-7-1"
       xlink:href="#use5702-7-1"
       transform="matrix(0.98068313,0.42742108,-0.40253913,0.92359349,71.938652,-83.029784)"
       id="use5837"
       width="100%"
       height="100%" />
    <use
       x="0"
       y="0"
       inkscape:tiled-clone-of="#use5835"
       xlink:href="#use5835"
       transform="matrix(0.96592759,-0.0895858,0.10063155,1.0850245,3.3230651,8.8027561)"
       id="use5839"
       width="100%"
       height="100%" />
    <use
       x="0"
       y="0"
       inkscape:tiled-clone-of="#use5835"
       xlink:href="#use5835"
       transform="matrix(0.99101053,0.18207592,-0.17102224,0.9308471,2.0637185,-31.161125)"
       id="use5841"
       width="100%"
       height="100%" />
    <use
       x="0"
       y="0"
       inkscape:tiled-clone-of="#use5835"
       xlink:href="#use5835"
       transform="matrix(1.0003038,-0.04768529,0.04711114,0.98825965,-18.776816,12.291376)"
       id="use5843"
       width="100%"
       height="100%" />
    <use
       x="0"
       y="0"
       inkscape:tiled-clone-of="#use5835"
       xlink:href="#use5835"
       transform="matrix(0.89487265,0.4141043,-0.47331448,1.0228249,84.33412,-96.610534)"
       id="use5845"
       width="100%"
       height="100%" />
    <path
       inkscape:connector-curvature="0"
       inkscape:tile-y0="40.24327"
       inkscape:tile-x0="2.55719"
       id="use5680-2"
       d="m 124.14709,137.58276 c 0.42228,-6.72325 0.84454,-13.44652 1.2668,-20.16976 a 0.00159812,0.11791505 3.6960042 0 0 0.005,-0.10142 c -0.28255,-7.3057 -0.56511,-14.61141 -0.84766,-21.917119 -0.26173,7.296549 -0.52346,14.593099 -0.78521,21.889649 -0.0864,0.59843 -2.89039,20.01262 -2.89039,20.01262 z"
       style="fill:url(#linearGradient5861-8);fill-opacity:1;fill-rule:evenodd;stroke:none;stroke-width:1px;stroke-linecap:butt;stroke-linejoin:miter;stroke-opacity:1" />
    <path
       inkscape:connector-curvature="0"
       inkscape:tile-y0="40.24327"
       inkscape:tile-x0="2.55719"
       id="use5680-2-7"
       d="m 128.84072,138.23716 c -0.42228,-6.72325 -0.84454,-13.44652 -1.2668,-20.16976 a 0.11791505,0.00159812 86.303996 0 1 -0.005,-0.10142 c 0.28255,-7.3057 0.56511,-14.61141 0.84766,-21.91712 0.26173,7.29655 0.52346,14.5931 0.78521,21.88965 0.0864,0.59843 2.89039,20.01262 2.89039,20.01262 z"
       style="fill:url(#linearGradient5861-8-0);fill-opacity:1;fill-rule:evenodd;stroke:none;stroke-width:1px;stroke-linecap:butt;stroke-linejoin:miter;stroke-opacity:1" />
    <use
       x="0"
       y="0"
       inkscape:tiled-clone-of="#use5835"
       xlink:href="#use5835"
       transform="matrix(-0.96981977,-0.02216614,-0.02489918,1.0893966,458.73276,-7.695948)"
       id="use5839-2"
       width="100%"
       height="100%" />
  </g>
</svg>
