<?xml version="1.0" encoding="UTF-8" standalone="no"?>
<!-- Created with Inkscape (http://www.inkscape.org/) -->

<svg
   xmlns:dc="http://purl.org/dc/elements/1.1/"
   xmlns:cc="http://creativecommons.org/ns#"
   xmlns:rdf="http://www.w3.org/1999/02/22-rdf-syntax-ns#"
   xmlns:svg="http://www.w3.org/2000/svg"
   xmlns="http://www.w3.org/2000/svg"
   xmlns:sodipodi="http://sodipodi.sourceforge.net/DTD/sodipodi-0.dtd"
   xmlns:inkscape="http://www.inkscape.org/namespaces/inkscape"
   width="127.28222mm"
   height="125.56442mm"
   viewBox="0 0 450.99999 444.9133"
   id="svg2"
   version="1.1"
   inkscape:version="0.91 r13725"
   sodipodi:docname="woodTile.svg">
  <defs
     id="defs4" />
  <sodipodi:namedview
     id="base"
     pagecolor="#ffffff"
     bordercolor="#666666"
     borderopacity="1.0"
     inkscape:pageopacity="0.0"
     inkscape:pageshadow="2"
     inkscape:zoom="15.839192"
     inkscape:cx="403.69155"
     inkscape:cy="460.69187"
     inkscape:document-units="px"
     inkscape:current-layer="layer1"
     showgrid="true"
     inkscape:window-width="1319"
     inkscape:window-height="855"
     inkscape:window-x="459"
     inkscape:window-y="154"
     inkscape:window-maximized="0"
     fit-margin-top="0"
     fit-margin-left="0"
     fit-margin-right="0"
     fit-margin-bottom="0">
    <inkscape:grid
       type="xygrid"
       id="grid4140"
       originx="0"
       originy="-4.7244097e-006" />
  </sodipodi:namedview>
  <metadata
     id="metadata7">
    <rdf:RDF>
      <cc:Work
         rdf:about="">
        <dc:format>image/svg+xml</dc:format>
        <dc:type
           rdf:resource="http://purl.org/dc/dcmitype/StillImage" />
        <dc:title></dc:title>
      </cc:Work>
    </rdf:RDF>
  </metadata>
  <g
     inkscape:label="Layer 1"
     inkscape:groupmode="layer"
     id="layer1"
     transform="translate(0,-607.4491)">
    <rect
       style="opacity:1;fill:#d9a03f;fill-opacity:1;fill-rule:nonzero;stroke:none;stroke-width:2.70000005;stroke-linecap:square;stroke-linejoin:miter;stroke-miterlimit:4;stroke-dasharray:none;stroke-opacity:1"
       id="rect4138"
       width="451"
       height="451"
       x="0"
       y="601.36218" />
    <path
       style="fill:#8d5c07;fill-opacity:1;fill-rule:evenodd;stroke:#925a00;stroke-width:2.70000005;stroke-linecap:butt;stroke-linejoin:miter;stroke-miterlimit:4;stroke-dasharray:none;stroke-opacity:1"
       d="m 248.43666,600.47163 c 0,18.79167 2.82561,17.58333 2.82561,36.375 0,18.79167 -10.14179,24.96259 -10.14179,43.75426 0,4.69792 6.22473,12.36929 1.64607,21.92115 -2.32012,4.84016 3.56718,19.84911 4.88403,30.80895 1.31686,10.95984 1.37102,22.42475 2.35866,31.81911 0.98764,9.39436 1.64607,17.22323 1.64607,21.92115 0,18.79167 -7.77487,10.10352 -7.77487,38.90038 0,28.79686 6.56599,57.59371 6.56599,86.39057 0,14.39844 -5.08249,20.72928 -10.16497,25.80947 -5.08249,5.08019 -10.16497,8.90974 -10.16497,18.30557 0,18.79167 5.05076,37.58333 5.05076,56.37496 0,18.7917 13.26941,19.8277 13.26941,38.6194 0,-18.7917 -11.75418,-19.4489 -11.75418,-38.2406 0,-18.79162 -9.78028,-37.60495 -9.78028,-56.39662 0,-9.39583 12.22534,-11.43966 17.30783,-16.51985 5.08248,-5.08019 6.2364,-13.55389 6.2364,-27.95233 0,-28.79686 -3.70885,-57.058 -3.70885,-85.85486 0,-28.79686 4.91773,-20.64442 4.91773,-39.43609 0,-4.69792 -0.65843,-12.52679 -1.64607,-21.92115 -0.98764,-9.39436 0.47343,-21.36434 -0.84342,-32.32418 -1.31686,-10.95984 -5.41163,-20.90952 -6.39927,-30.30388 -0.98764,-9.39436 -1.64607,-17.22323 -1.64607,-21.92115 0,-18.79167 10.14179,-24.96259 10.14179,-43.75426 0,-18.79167 -2.82561,-17.58333 -2.82561,-36.375 z"
       id="path4352"
       inkscape:connector-curvature="0"
       sodipodi:nodetypes="cssssssssssscsssssssssssc" />
    <path
       style="fill:none;fill-rule:evenodd;stroke:#ac741a;stroke-width:2.9000001;stroke-linecap:butt;stroke-linejoin:miter;stroke-miterlimit:4;stroke-dasharray:none;stroke-opacity:1"
       d="m 324.03041,600.47163 c 0,18.79167 8.08122,43.64425 8.08122,62.43592 0,18.79167 -6.30602,24.42898 -6.30602,36.17811 0,11.74913 4.64082,31.32542 4.64082,43.07455 0,11.74914 -9.69902,53.403 -9.69902,72.19467 0,18.79167 15.15229,37.58333 15.15229,56.375 0,18.79167 -22.47589,48.695 -22.47589,67.48667 0,18.79167 5.05076,37.58333 5.05076,56.375 0,18.79165 5.55584,38.08835 5.55584,56.88005 0,-18.7917 -5.55584,-38.0884 -5.55584,-56.88005 0,-18.79167 -5.05076,-37.58333 -5.05076,-56.375 0,-18.79167 20.96066,-49.20008 20.96066,-67.99175 0,-18.79167 -13.63706,-37.07825 -13.63706,-55.86992 0,-18.79167 8.09188,-60.26696 8.09188,-72.0161 0,-11.74913 -3.03368,-31.50399 -3.03368,-43.25312 0,-11.74913 6.30602,-17.38644 6.30602,-36.17811 0,-18.79167 -8.08122,-43.64425 -8.08122,-62.43592 z"
       id="path4350"
       inkscape:connector-curvature="0"
       sodipodi:nodetypes="cssssssscsssssssc" />
    <path
       style="fill:none;fill-rule:evenodd;stroke:#c68214;stroke-width:2.9000001;stroke-linecap:butt;stroke-linejoin:miter;stroke-miterlimit:4;stroke-dasharray:none;stroke-opacity:1"
       d="m 16.997209,600.77632 c 0,18.79167 18.182746,37.58333 18.182746,56.375 0,18.79167 -21.213203,4.2483 -21.213203,23.03997 0,18.79167 16.16244,84.05034 16.16244,102.84201 0,18.79167 -7.323606,26.72419 -7.323606,45.51586 0,9.39584 8.586297,19.04421 9.848987,28.18751 1.262691,9.1433 -10.606601,24.34751 -10.606601,33.74334 0,18.79167 -10.101526,28.49196 -10.101526,47.28363 0,18.79167 5.050763,37.58333 5.050763,56.375 l 0,57.63766 0,-57.63766 c 0,-18.79167 -7.9549517,-37.33079 -7.9549517,-56.12246 0,-18.79167 13.0057147,-28.7445 13.0057147,-47.53617 0,-9.39583 11.869292,-24.60004 10.606601,-33.74334 -1.26269,-9.1433 -9.848987,-18.79167 -9.848987,-28.18751 0,-18.79167 7.323606,-26.72419 7.323606,-45.51586 0,-18.79167 -14.376726,-81.1932 -14.376726,-99.98487 0,-18.79167 19.427489,-7.10544 19.427489,-25.89711 0,-18.79167 -18.182746,-37.58333 -18.182746,-56.375 z"
       id="path4348"
       inkscape:connector-curvature="0"
       sodipodi:nodetypes="csssssssscssssssssc" />
    <path
       style="fill:none;fill-rule:evenodd;stroke:#925a00;stroke-width:2.0999999;stroke-linecap:butt;stroke-linejoin:miter;stroke-miterlimit:4;stroke-dasharray:none;stroke-opacity:1"
       d="m 40.194475,600.85052 c 0,18.79167 13.897032,37.58333 13.897032,56.375 0,18.79167 -14.402108,16.37013 -14.402108,35.1618 0,18.79167 13.637059,71.92851 13.637059,90.72018 0,18.79166 -13.131983,24.45135 -13.131983,43.24301 0,18.79167 15.152288,37.58333 15.152288,56.375 0,18.79167 -34.345186,28.99703 -34.345186,47.7887 0,18.79167 5.050762,37.58333 5.050762,56.375 0,18.79159 14.142136,46.16959 14.142136,64.96129 0,-18.7917 -14.142136,-46.1697 -14.142136,-64.96129 0,-18.79167 -3.788071,-37.96214 -3.788071,-56.75381 0,-18.79167 33.082495,-28.61822 33.082495,-47.40989 0,-18.79167 -15.152288,-37.58333 -15.152288,-56.375 0,-18.79166 10.989126,-24.09421 10.989126,-42.88587 0,-18.79167 -11.494202,-72.28565 -11.494202,-91.07732 0,-18.79167 11.902108,-14.94156 11.902108,-33.73323 0,-18.79167 -11.397032,-39.0119 -11.397032,-57.80357 z"
       id="path4346"
       inkscape:connector-curvature="0"
       sodipodi:nodetypes="cssssssscsssssssc" />
    <path
       style="fill:none;fill-rule:evenodd;stroke:#a56600;stroke-width:2.70000005;stroke-linecap:butt;stroke-linejoin:miter;stroke-miterlimit:4;stroke-dasharray:none;stroke-opacity:1"
       d="m 53.506975,600.89352 c 0,18.79167 10.325603,37.94047 10.325603,56.73214 0,18.79167 -2.616393,19.94156 -2.616393,38.73323 0,18.79167 5.422773,67.99995 5.422773,86.79162 0,18.79167 -13.131983,24.45135 -13.131983,43.24302 0,18.79167 15.152288,37.58333 15.152288,56.375 0,4.69792 -1.521574,9.84226 -3.803935,15.20982 -2.282361,5.36756 -6.039796,11.13691 -9.082944,16.72768 -3.043148,5.59077 -4.657725,11.89584 -6.940086,17.2634 -2.282361,5.36756 -4.518221,9.61904 -4.518221,14.31696 0,18.79167 -7.222081,16.80342 -7.222081,35.59509 0,18.79162 16.414979,51.22032 16.414979,70.01202 0,-18.7917 -16.414979,-51.2204 -16.414979,-70.01202 0,-18.79167 9.54351,-17.16056 9.54351,-35.95223 0,-4.69792 2.427275,-9.45356 4.461044,-14.77376 2.033769,-5.32021 4.209746,-18.34785 6.921438,-23.87549 2.711692,-5.52764 1.494813,-3.01956 3.528582,-8.33977 2.033769,-5.3202 6.782472,-11.32584 6.782472,-16.02376 0,-18.79167 -14.822067,-37.73127 -14.822067,-56.52294 0,-18.79167 13.131983,-24.45135 13.131983,-43.24302 0,-18.79167 -3.637059,-68.35709 -3.637059,-87.14876 0,-18.79167 0.830679,-19.58442 0.830679,-38.37609 0,-18.79167 -10.325603,-37.94047 -10.325603,-56.73214 z"
       id="path4344"
       inkscape:connector-curvature="0"
       sodipodi:nodetypes="csssssssssscssssssssssc" />
    <path
       style="fill:#8d5c07;fill-opacity:1;fill-rule:evenodd;stroke:#9f6c18;stroke-width:1.89999998;stroke-linecap:butt;stroke-linejoin:miter;stroke-miterlimit:4;stroke-dasharray:none;stroke-opacity:1"
       d="m 350.41713,601.09469 c 0,18.79167 18.18275,37.58334 18.18275,56.37501 0,18.79167 -25.49892,24.96259 -25.49892,43.75426 0,4.69792 1.27801,11.00538 3.19502,18.11762 1.91702,7.11223 4.47304,15.02924 7.02906,22.94624 2.55602,7.91701 5.11204,15.83402 7.02906,22.94626 1.91701,7.11223 3.19502,13.41969 3.19502,18.11761 0,18.79167 -13.13199,24.45136 -13.13199,43.24303 0,18.79167 17.47372,36.86904 17.47372,55.66071 0,9.39584 -6.44344,20.75596 -15.02974,30.1518 -8.58629,9.39583 -19.31545,16.82738 -19.31545,26.22321 0,4.69792 0.17058,9.44048 0.42646,14.20536 0.25587,4.76488 0.59704,9.55208 0.93821,14.33929 0.34116,4.7872 0.68233,9.5744 0.9382,14.33928 0.25588,4.76488 0.42646,9.50744 0.42646,14.20536 0,18.79167 14.14214,37.58327 14.14214,56.37497 0,-18.7917 -12.535,-36.1547 -12.535,-54.9464 0,-4.69792 0.90085,-7.83334 0.64497,-12.59822 -0.25587,-4.76488 -3.08067,-12.18788 -1.29534,-17.73213 1.47107,-4.56834 -3.00377,-9.21727 -3.25964,-13.98215 -0.25588,-4.76488 -0.42646,-9.50744 -0.42646,-14.20536 0,-9.39583 8.05058,-18.61309 16.10116,-27.83036 8.05059,-9.21726 16.10117,-18.43452 16.10117,-27.83036 0,-18.79167 -15.33086,-37.58333 -15.33086,-56.375 0,-18.79167 12.06056,-23.20136 12.06056,-41.99303 0,-4.69792 -2.03126,-7.23949 -3.02761,-18.31293 -0.668,-7.42416 -0.70313,-17.57552 -3.12523,-25.64878 -2.42209,-8.07325 -3.32895,-13.62113 -5.14552,-20.85055 -1.81656,-7.22943 -8.07837,-13.86755 -8.07837,-18.56547 0,-18.79167 23.71321,-24.96259 23.71321,-43.75426 0,-18.79167 -16.39704,-37.58334 -16.39704,-56.37501 z"
       id="path4342"
       inkscape:connector-curvature="0"
       sodipodi:nodetypes="csssssssssssssscssssssssssssssc" />
    <path
       style="fill:#a76f0e;fill-opacity:1;fill-rule:evenodd;stroke:#a56c0f;stroke-width:4.5;stroke-linecap:butt;stroke-linejoin:miter;stroke-miterlimit:4;stroke-dasharray:none;stroke-opacity:1"
       d="m 214.91713,601.18449 c 0,18.79167 15.32561,21.86904 15.32561,40.66071 0,18.79167 -14.78464,14.24831 -14.78464,33.03998 0,18.79167 14.73388,59.76462 14.73388,78.55629 0,4.69792 -1.23944,10.45009 -3.0986,16.72938 -1.85917,6.27929 -4.33805,13.08571 -6.81694,19.89213 -2.47888,6.80642 -4.95776,13.61284 -6.81693,19.89213 -1.85916,6.27929 -3.0986,12.03146 -3.0986,16.72938 0,18.79167 19.70851,37.58334 19.70851,56.37501 0,18.79167 -34.34519,37.58333 -34.34519,56.375 0,18.79167 5.05076,37.58333 5.05076,56.375 0,18.7916 14.14214,37.5833 14.14214,56.375 0,-18.7917 -14.14214,-37.5834 -14.14214,-56.375 0,-18.79167 -5.05076,-37.58333 -5.05076,-56.375 0,-18.79167 34.34519,-37.58333 34.34519,-56.375 0,-18.79167 -25.26435,-31.52242 -25.26435,-50.31409 0,-4.69792 -1.53848,-13.48055 0.32068,-19.75984 1.85917,-6.27929 12.67181,-16.11617 15.15069,-22.92259 2.47889,-6.80642 4.95777,-13.61284 6.81694,-19.89213 1.85916,-6.27929 3.0986,-12.03146 3.0986,-16.72938 0,-18.79167 -10.80531,-57.26462 -10.80531,-76.05629 0,-18.79167 10.85607,-16.74831 10.85607,-35.53998 0,-18.79167 -15.32561,-21.86904 -15.32561,-40.66071 z"
       id="path4340"
       inkscape:connector-curvature="0"
       sodipodi:nodetypes="csssssssssscssssssssssc" />
    <path
       style="fill:#8d5c07;fill-opacity:1;fill-rule:evenodd;stroke:#925a00;stroke-width:2.70000005;stroke-linecap:butt;stroke-linejoin:miter;stroke-miterlimit:4;stroke-dasharray:none;stroke-opacity:1"
       d="m 376.44838,601.18449 c 0,4.69792 1.13642,9.39583 2.84105,14.09375 1.70464,4.69792 3.97748,9.39583 6.25033,14.09375 2.27284,4.69792 4.54568,9.39583 6.25032,14.09375 1.70463,4.69792 2.84105,9.39583 2.84105,14.09375 0,18.79167 -21.21321,13.53402 -21.21321,32.32569 0,9.39584 -7.98073,30.57501 -1.76776,48.79845 5.0082,14.68965 12.37437,36.87723 12.37437,46.27307 0,18.79167 -13.13199,24.45135 -13.13199,43.24302 0,18.79167 20.70813,36.06811 20.70813,54.85978 0,18.79167 -34.34519,37.58333 -34.34519,56.375 0,18.79167 5.05076,37.58333 5.05076,56.375 0,18.7916 14.14214,37.5833 14.14214,56.375 0,-18.7917 -14.14214,-37.5834 -14.14214,-56.375 0,-18.79167 -5.05076,-37.58333 -5.05076,-56.375 0,-18.79167 34.34519,-37.58333 34.34519,-56.375 0,-18.79167 -20.70813,-36.06811 -20.70813,-54.85978 0,-18.79167 13.13199,-24.45135 13.13199,-43.24302 0,-9.39584 -9.47018,-26.4455 -12.12183,-45.51546 -2.65166,-19.06996 1.51522,-40.16022 1.51522,-49.55606 0,-18.79167 21.21321,-13.53402 21.21321,-32.32569 0,-4.69792 -4.16688,-10.91106 -5.87151,-15.60898 -1.70464,-4.69792 -0.94702,-7.8806 -3.21986,-12.57852 -2.27285,-4.69792 -4.54569,-9.39583 -6.25033,-14.09375 -1.70463,-4.69792 -2.84105,-9.39583 -2.84105,-14.09375 z"
       id="path4338"
       inkscape:connector-curvature="0"
       sodipodi:nodetypes="cssssssssssscsssssssssssc" />
    <path
       style="fill:none;fill-rule:evenodd;stroke:#9e6100;stroke-width:3.0999999;stroke-linecap:butt;stroke-linejoin:miter;stroke-miterlimit:4;stroke-dasharray:none;stroke-opacity:1"
       d="m 392.22573,601.27439 c 0,18.79167 18.18275,37.58333 18.18275,56.375 0,18.79166 -18.44273,9.48725 -18.44273,28.27891 0,9.39584 12.06056,24.80553 16.29243,44.25584 4.23188,19.45031 4.92822,38.90062 4.92822,48.29646 0,18.79166 -26.51651,31.01734 -26.51651,49.809 0,18.79167 20.70813,36.0681 20.70813,54.85977 0,18.79166 -34.34519,37.58333 -34.34519,56.37499 0,18.79167 5.05076,37.58333 5.05076,56.375 0,18.79164 14.14214,37.58334 14.14214,56.37494 0,-18.7916 -19.00578,-43.0218 -14.14214,-61.17316 5.02083,-18.73801 -5.05076,-32.78511 -5.05076,-51.57678 0,-18.79166 34.34519,-37.58333 34.34519,-56.37499 0,-18.79167 -20.70813,-36.0681 -20.70813,-54.85977 0,-9.39583 7.32361,-21.00137 14.01588,-27.80869 6.69226,-6.80731 12.37436,-9.19522 12.37436,-18.59105 0,-9.39584 -0.31753,-28.59361 -4.54941,-48.17019 -4.23187,-19.57658 -16.29243,-35.11255 -16.29243,-44.50838 0,-18.79166 18.19019,-12.77024 18.19019,-31.5619 0,-18.79167 -18.18275,-37.58333 -18.18275,-56.375 z"
       id="path4336"
       inkscape:connector-curvature="0"
       sodipodi:nodetypes="csssssssscsssssssssc" />
    <path
       style="fill:none;fill-rule:evenodd;stroke:#925a00;stroke-width:2;stroke-linecap:butt;stroke-linejoin:miter;stroke-miterlimit:4;stroke-dasharray:none;stroke-opacity:1"
       d="m 81.747209,601.36229 c 0,18.79167 18.182749,37.58333 18.182749,56.375 0,18.79166 -18.687825,16.37013 -18.687825,35.16179 0,9.39583 6.432289,22.25169 8.578865,40.10755 2.14658,17.85586 0.0074,40.71171 0.0074,50.10755 0,18.79166 -13.131989,24.45135 -13.131989,43.24301 0,18.79167 20.203052,38.08841 20.203052,56.88008 0,18.79167 -24.345187,44.72619 -24.345187,63.51786 0,18.79166 -7.222081,16.80341 -7.222081,35.59507 0,18.7916 16.414979,51.2204 16.414979,70.012 0,-18.7916 -16.414979,-51.2204 -16.414979,-70.012 0,-18.79166 7.222081,-16.80341 7.222081,-35.59507 0,-18.79167 24.345187,-44.72619 24.345187,-63.51786 0,-18.79167 -20.203052,-38.08841 -20.203052,-56.88008 0,-18.79166 13.131989,-24.45135 13.131989,-43.24301 0,-9.39584 1.960563,-32.7874 -0.186008,-50.64326 -2.146576,-17.85586 -8.400294,-30.17601 -8.400294,-39.57184 0,-18.79166 18.687825,-16.37013 18.687825,-35.16179 0,-18.79167 -18.182749,-37.58333 -18.182749,-56.375 z"
       id="path4334"
       inkscape:connector-curvature="0"
       sodipodi:nodetypes="csssssssscssssssssc" />
    <path
       style="fill:none;fill-rule:evenodd;stroke:#a06300;stroke-width:4.19999981;stroke-linecap:butt;stroke-linejoin:miter;stroke-miterlimit:4;stroke-dasharray:none;stroke-opacity:1"
       d="m 120.06752,601.36229 c 0,18.79167 5.86132,37.40476 5.86132,56.19643 0,9.39583 -3.24207,14.01379 -7.73414,20.23889 -4.49208,6.2251 1.55157,14.77162 1.55157,24.16745 0,18.79167 -13.71501,24.96424 -13.71501,43.75591 0,18.79166 -8.820882,59.4925 -8.820882,78.28416 0,18.79167 38.009432,40.44047 38.009432,59.23214 0,18.79167 -32.20233,46.86905 -32.20233,65.66072 0,18.79166 -5.663532,31.97057 -5.663532,50.76223 0,18.79168 22.713572,33.91038 22.713572,52.70198 0,-18.7916 -22.713572,-33.9103 -22.713572,-52.70198 0,-18.79166 5.663532,-31.97057 5.663532,-50.76223 0,-18.79167 32.20233,-46.86905 32.20233,-65.66072 0,-18.79167 -38.009432,-40.44047 -38.009432,-59.23214 0,-18.79166 8.463742,-59.67107 8.463742,-78.46273 0,-18.79167 14.965,-25.14281 14.965,-43.93448 0,-9.39583 -7.47221,-17.40665 -2.98013,-23.63175 4.49207,-6.2251 10.54269,-11.27416 10.54269,-20.66999 0,-18.79167 -8.13416,-37.15222 -8.13416,-55.94389 z"
       id="path4332"
       inkscape:connector-curvature="0"
       sodipodi:nodetypes="csssssssscssssssssc" />
    <path
       style="fill:#b67300;fill-opacity:1;fill-rule:evenodd;stroke:#b6760f;stroke-width:1.79999995;stroke-linecap:butt;stroke-linejoin:miter;stroke-miterlimit:4;stroke-dasharray:none;stroke-opacity:1"
       d="m 154.29995,601.36229 c 0,18.79167 16.03989,28.29762 16.03989,47.08929 0,4.69791 -3.4963,8.30313 -5.3315,12.4984 -1.8352,4.19528 -4.28213,8.22301 -6.72905,12.25074 -2.44693,4.02772 -2.62102,8.81306 -4.45622,13.00834 -1.8352,4.19527 -3.05866,8.55809 -3.05866,13.25601 0,18.79167 -9.42929,57.6428 -9.42929,76.43447 0,18.79166 -0.24945,28.95679 -0.24945,47.74845 0,18.79167 15.86657,39.72618 15.86657,58.51785 0,4.69792 -1.2314,10.04316 -3.07849,15.71206 -1.84709,5.66889 -4.30988,11.66145 -6.77267,17.65401 -2.4628,5.99256 -4.92559,11.98512 -6.77268,17.65402 -1.84709,5.6689 -3.07849,11.01414 -3.07849,15.71206 0,18.79166 -5.66353,31.97057 -5.66353,50.76223 0,18.79168 22.71357,33.91038 22.71357,52.70198 0,-18.7916 -20.92786,-33.9103 -20.92786,-52.70198 0,-18.79166 7.80639,-31.792 7.80639,-50.58366 0,-4.69792 -2.67485,-10.24405 -0.79428,-15.94643 1.88058,-5.70238 7.6023,-9.41815 10.10973,-15.45536 2.50744,-6.0372 3.22915,-8.86012 5.10973,-14.5625 1.88057,-5.70238 1.70572,-16.60565 1.70572,-21.30357 0,-18.79167 -15.86657,-39.0119 -15.86657,-57.80357 0,-18.79166 4.89231,-24.67108 4.89231,-43.46274 0,-18.79167 4.42929,-62.28565 4.42929,-81.07732 0,-4.69791 1.22346,-9.06074 3.05866,-13.25601 1.8352,-4.19528 3.27198,-8.72808 5.71891,-12.7558 2.44692,-4.02773 3.63116,-8.308 5.46636,-12.50328 1.8352,-4.19527 2.8315,-7.80048 2.8315,-12.4984 0,-18.79167 -13.53989,-28.29762 -13.53989,-47.08929 z"
       id="path4330"
       inkscape:connector-curvature="0"
       sodipodi:nodetypes="cssssssssssssscsssssssssssssc" />
    <path
       style="fill:#8d5c07;fill-opacity:1;fill-rule:evenodd;stroke:#925100;stroke-width:2.70000005;stroke-linecap:butt;stroke-linejoin:miter;stroke-miterlimit:4;stroke-dasharray:none;stroke-opacity:1"
       d="m 410.7687,601.36229 c 0,4.69792 1.13642,9.39583 2.84105,14.09375 1.70464,4.69792 3.97748,9.39583 6.25032,14.09375 2.27285,4.69792 4.54569,9.39583 6.25033,14.09375 1.70463,4.69792 2.84105,9.39583 2.84105,14.09375 0,18.79166 -21.15616,10.90408 -15.85607,28.93282 3.35186,11.40163 -4.09445,6.40716 -2.20041,15.46136 1.89404,9.0542 7.05147,17.40164 8.55194,28.1025 0.99952,7.12823 3.44362,22.97687 5.33766,32.03107 1.89404,9.0542 3.15673,16.6563 3.15673,21.35422 0,18.79166 -17.1726,24.45135 -17.1726,43.24301 0,18.79167 15.15229,37.58333 15.15229,56.375 0,18.79167 -22.88798,38.46853 -25.41662,57.08929 -9.25424,68.14764 -3.87781,36.86904 -3.87781,55.6607 0,18.79164 14.14214,37.58334 14.14214,56.37494 0,-18.7916 -14.64722,-46.6747 -14.64722,-65.46631 0,-18.79166 1.78057,-26.202 2.74947,-37.80664 1.57548,-18.8699 27.05004,-47.06031 27.05004,-65.85198 0,-18.79167 -15.15229,-37.58333 -15.15229,-56.375 0,-18.79166 17.1726,-24.45135 17.1726,-43.24301 0,-4.69792 -0.91545,-12.17375 -2.28863,-21.03855 -1.37318,-8.86479 0.36735,-19.11855 -1.46355,-29.3723 -1.8309,-10.25375 -7.23324,-20.50751 -8.60641,-29.3723 -1.37318,-8.8648 -2.28863,-16.34063 -2.28863,-21.03855 0,-18.79166 15.65737,-6.26861 15.65737,-25.06027 0,-4.69792 -1.13642,-9.39583 -2.84105,-14.09375 -1.70464,-4.69792 -2.71479,-10.27971 -4.98764,-14.97763 -2.27284,-4.69792 -1.13641,-9.01703 -2.84105,-13.71495 -1.70463,-4.69792 -7.51301,-8.89075 -7.51301,-13.58867 z"
       id="path4142"
       inkscape:connector-curvature="0"
       sodipodi:nodetypes="cssssssssssssscsssssssssssssc" />
    <path
       style="fill:none;fill-opacity:1;fill-rule:evenodd;stroke:#925c00;stroke-width:1.41267097;stroke-linecap:butt;stroke-linejoin:miter;stroke-miterlimit:4;stroke-dasharray:none;stroke-opacity:1"
       d="m 99.839838,690.87675 c -6.46797,10.49272 -2.73371,16.23397 -0.31706,26.45449"
       id="path4356"
       inkscape:connector-curvature="0"
       sodipodi:nodetypes="cc" />
    <path
       style="fill:none;fill-opacity:1;fill-rule:evenodd;stroke:#925c00;stroke-width:1.46437645;stroke-linecap:butt;stroke-linejoin:miter;stroke-miterlimit:4;stroke-dasharray:none;stroke-opacity:1"
       d="m 100.14693,690.94991 c 8.05302,11.18762 2.95732,18.15986 -1e-5,25.79019"
       id="path4356-8"
       inkscape:connector-curvature="0"
       sodipodi:nodetypes="cc" />
    <path
       style="fill:none;fill-opacity:1;fill-rule:evenodd;stroke:#925c00;stroke-width:2.349087;stroke-linecap:butt;stroke-linejoin:miter;stroke-miterlimit:4;stroke-dasharray:none;stroke-opacity:1"
       d="m 385.74565,719.38209 c -4.43429,20.0348 3.88983,30.01495 12.45459,48.3529"
       id="path4356-0"
       inkscape:connector-curvature="0"
       sodipodi:nodetypes="cc" />
    <path
       style="fill:none;fill-opacity:1;fill-rule:evenodd;stroke:#925c00;stroke-width:2.349087;stroke-linecap:butt;stroke-linejoin:miter;stroke-miterlimit:4;stroke-dasharray:none;stroke-opacity:1"
       d="m 385.99045,719.4597 c 8.26675,9.72612 14.45598,12.9025 14.41812,24.25758 -0.0255,7.6541 -1.63546,15.75023 -1.79951,22.91387"
       id="path4356-8-0"
       inkscape:connector-curvature="0"
       sodipodi:nodetypes="csc" />
    <path
       style="fill:none;fill-opacity:1;fill-rule:evenodd;stroke:#d1952f;stroke-width:2.349087;stroke-linecap:butt;stroke-linejoin:miter;stroke-miterlimit:4;stroke-dasharray:none;stroke-opacity:1"
       d="m 194.06147,853.80999 c 8.26675,9.72612 8.74169,12.9025 8.70383,24.25758 -0.0255,7.6541 -9.84974,17.53594 -10.01379,24.69958"
       id="path4356-8-0-5"
       inkscape:connector-curvature="0"
       sodipodi:nodetypes="csc" />
    <path
       style="fill:none;fill-opacity:1;fill-rule:evenodd;stroke:#c88a22;stroke-width:2.349087;stroke-linecap:butt;stroke-linejoin:miter;stroke-miterlimit:4;stroke-dasharray:none;stroke-opacity:1"
       d="m 193.08826,855.05489 c -3.03823,12.39781 -14.29362,20.50879 -9.17661,30.64562 3.4492,6.83293 6.01311,10.13755 9.36664,16.46988"
       id="path4356-8-0-7"
       inkscape:connector-curvature="0"
       sodipodi:nodetypes="csc" />
  </g>
</svg>
