<?xml version="1.0" encoding="UTF-8" standalone="no"?>
<!-- Created with Inkscape (http://www.inkscape.org/) -->
<svg
   xmlns:dc="http://purl.org/dc/elements/1.1/"
   xmlns:cc="http://creativecommons.org/ns#"
   xmlns:rdf="http://www.w3.org/1999/02/22-rdf-syntax-ns#"
   xmlns:svg="http://www.w3.org/2000/svg"
   xmlns="http://www.w3.org/2000/svg"
   xmlns:xlink="http://www.w3.org/1999/xlink"
   xmlns:sodipodi="http://sodipodi.sourceforge.net/DTD/sodipodi-0.dtd"
   xmlns:inkscape="http://www.inkscape.org/namespaces/inkscape"
   width="126"
   height="100"
   id="svg2"
   sodipodi:version="0.32"
   inkscape:version="0.46"
   version="1.0"
   sodipodi:docname="explosion12.svg"
   inkscape:output_extension="org.inkscape.output.svg.inkscape">
  <defs
     id="defs4">
    <linearGradient
       id="linearGradient3166">
      <stop
         style="stop-color:#ffdf3d;stop-opacity:1;"
         offset="0"
         id="stop3178" />
      <stop
         id="stop3174"
         offset="1"
         style="stop-color:#955400;stop-opacity:1;" />
    </linearGradient>
    <inkscape:perspective
       sodipodi:type="inkscape:persp3d"
       inkscape:vp_x="0 : 526.18109 : 1"
       inkscape:vp_y="0 : 1000 : 0"
       inkscape:vp_z="744.09448 : 526.18109 : 1"
       inkscape:persp3d-origin="372.04724 : 350.78739 : 1"
       id="perspective10" />
    <radialGradient
       inkscape:collect="always"
       xlink:href="#linearGradient3166"
       id="radialGradient3172"
       cx="440.7966"
       cy="604.52759"
       fx="440.7966"
       fy="604.52759"
       r="81.644852"
       gradientTransform="matrix(0.773781,0,0,0.6100094,99.716592,235.76007)"
       gradientUnits="userSpaceOnUse" />
  </defs>
  <sodipodi:namedview
     id="base"
     pagecolor="#ffffff"
     bordercolor="#666666"
     borderopacity="1.0"
     inkscape:pageopacity="0.0"
     inkscape:pageshadow="2"
     inkscape:zoom="1.979899"
     inkscape:cx="-61.716141"
     inkscape:cy="58.620386"
     inkscape:document-units="px"
     inkscape:current-layer="layer1"
     showgrid="false"
     inkscape:window-width="1278"
     inkscape:window-height="970"
     inkscape:window-x="0"
     inkscape:window-y="24" />
  <metadata
     id="metadata7">
    <rdf:RDF>
      <cc:Work
         rdf:about="">
        <dc:format>image/svg+xml</dc:format>
        <dc:type
           rdf:resource="http://purl.org/dc/dcmitype/StillImage" />
      </cc:Work>
    </rdf:RDF>
  </metadata>
  <g
     inkscape:label="Ebene 1"
     inkscape:groupmode="layer"
     id="layer1"
     transform="translate(-377.62135,-554.72347)">
    <path
       style="fill:url(#radialGradient3172);fill-opacity:1;stroke:none;stroke-width:0.1;stroke-linecap:square;stroke-linejoin:miter;stroke-miterlimit:4;stroke-dashoffset:0;stroke-opacity:1"
       d="M 474.73121,614.42166 C 472.80862,619.02364 483.91188,629.3545 483.91188,629.3545 C 483.91188,629.3545 461.88193,628.74595 456.74432,632.37018 C 452.22972,635.55495 449.21235,647.73558 449.21235,647.73558 C 449.21235,647.73558 436.8281,642.44635 431.26512,642.95107 C 425.09084,643.51124 413.9019,654.33175 413.9019,654.33175 C 413.9019,654.33175 409.98815,642.26528 405.47509,639.95569 C 399.8903,637.09764 390.81017,638.11153 390.81017,638.11153 C 390.81017,638.11153 392.88103,631.37486 390.27969,626.61103 C 387.55955,621.62958 377.62135,619.96295 377.62135,619.96295 C 377.62135,619.96295 388.79532,613.93913 389.39529,607.79714 C 389.88482,602.78559 377.91363,591.59584 377.91363,591.59584 C 377.91363,591.59584 392.66991,594.78024 396.7397,589.78765 C 400.01072,585.77495 392.21293,567.00514 392.21293,567.00514 C 392.21293,567.00514 413.3619,577.90538 420.09665,575.57132 C 427.04607,573.16291 438.089,554.72347 438.089,554.72347 C 438.089,554.72347 442.44895,570.63279 447.60273,571.58913 C 453.82982,572.74464 471.39366,563.92758 471.39366,563.92758 C 471.39366,563.92758 466.13731,574.89547 469.82243,578.4818 C 474.14697,582.69041 489.1451,575.32227 489.1451,575.32227 C 489.1451,575.32227 480.78322,587.68539 481.94953,593.38108 C 483.01276,598.57347 503.97184,605.0119 503.97184,605.0119 C 503.97184,605.0119 477.19803,608.51703 474.73121,614.42166 z"
       id="path2389"
       sodipodi:nodetypes="ccscscscscscscscscscscs" />
  </g>
</svg>
