<?xml version="1.0" encoding="UTF-8" standalone="no"?>
<!-- Created with Inkscape (http://www.inkscape.org/) -->
<svg
   xmlns:dc="http://purl.org/dc/elements/1.1/"
   xmlns:cc="http://creativecommons.org/ns#"
   xmlns:rdf="http://www.w3.org/1999/02/22-rdf-syntax-ns#"
   xmlns:svg="http://www.w3.org/2000/svg"
   xmlns="http://www.w3.org/2000/svg"
   xmlns:xlink="http://www.w3.org/1999/xlink"
   xmlns:sodipodi="http://sodipodi.sourceforge.net/DTD/sodipodi-0.dtd"
   xmlns:inkscape="http://www.inkscape.org/namespaces/inkscape"
   width="126"
   height="100"
   id="svg2"
   sodipodi:version="0.32"
   inkscape:version="0.46"
   version="1.0"
   sodipodi:docname="explosion1.svg"
   inkscape:output_extension="org.inkscape.output.svg.inkscape">
  <defs
     id="defs4">
    <linearGradient
       id="linearGradient3166">
      <stop
         style="stop-color:#feffc4;stop-opacity:1;"
         offset="0"
         id="stop3178" />
      <stop
         id="stop3174"
         offset="1"
         style="stop-color:#f1ff62;stop-opacity:1;" />
    </linearGradient>
    <inkscape:perspective
       sodipodi:type="inkscape:persp3d"
       inkscape:vp_x="0 : 526.18109 : 1"
       inkscape:vp_y="0 : 1000 : 0"
       inkscape:vp_z="744.09448 : 526.18109 : 1"
       inkscape:persp3d-origin="372.04724 : 350.78739 : 1"
       id="perspective10" />
    <radialGradient
       inkscape:collect="always"
       xlink:href="#linearGradient3166"
       id="radialGradient3172"
       cx="440.7966"
       cy="604.52759"
       fx="440.7966"
       fy="604.52759"
       r="81.644852"
       gradientTransform="matrix(0.492654,2.4715796e-7,-2.1422351e-7,0.4270066,223.51966,348.03869)"
       gradientUnits="userSpaceOnUse" />
  </defs>
  <sodipodi:namedview
     id="base"
     pagecolor="#ffffff"
     bordercolor="#666666"
     borderopacity="1.0"
     inkscape:pageopacity="0.0"
     inkscape:pageshadow="2"
     inkscape:zoom="2.8"
     inkscape:cx="52.178573"
     inkscape:cy="48.19979"
     inkscape:document-units="px"
     inkscape:current-layer="layer1"
     showgrid="false"
     inkscape:window-width="1278"
     inkscape:window-height="970"
     inkscape:window-x="0"
     inkscape:window-y="24" />
  <metadata
     id="metadata7">
    <rdf:RDF>
      <cc:Work
         rdf:about="">
        <dc:format>image/svg+xml</dc:format>
        <dc:type
           rdf:resource="http://purl.org/dc/dcmitype/StillImage" />
      </cc:Work>
    </rdf:RDF>
  </metadata>
  <g
     inkscape:label="Ebene 1"
     inkscape:groupmode="layer"
     id="layer1"
     transform="translate(-377.62135,-554.72347)">
    <path
       style="fill:url(#radialGradient3172);fill-opacity:1;stroke:none;stroke-width:0.1;stroke-linecap:square;stroke-linejoin:miter;stroke-miterlimit:4;stroke-dashoffset:0;stroke-opacity:1"
       d="M 450.9842,616.30903 C 449.63839,619.53042 454.1962,620.47648 454.1962,620.47648 C 454.1962,620.47648 449.65392,617.2147 446.05759,619.75166 C 442.89738,621.981 443.30298,625.75744 443.30298,625.75744 C 443.30298,625.75744 439.88401,621.08011 435.98992,621.43341 C 431.66793,621.82553 429.85343,629.03898 429.85343,629.03898 C 429.85343,629.03898 430.29579,620.41047 427.13665,618.79376 C 423.2273,616.79312 419.93922,618.93483 419.93922,618.93483 C 419.93922,618.93483 424.67437,619.34784 422.85343,616.01316 C 420.94933,612.52615 417.20705,614.73082 417.20705,614.73082 C 417.20705,614.73082 420.52148,616.47125 420.94146,612.17186 C 421.28413,608.66378 413.16165,607.87385 413.16165,607.87385 C 413.16165,607.87385 422.79869,610.59838 423.72899,606.18655 C 424.32128,603.37766 425.93892,596.92812 425.93892,596.92812 C 425.93892,596.92812 424.90742,604.81869 429.62174,603.18485 C 434.48634,601.49896 437.2844,593.06318 437.2844,593.06318 C 437.2844,593.06318 438.17345,596.83191 441.7798,597.50823 C 446.13257,598.32453 443.83913,594.9163 447.09767,591.00605 C 447.09767,591.00605 447.23623,594.55491 449.81582,597.06534 C 452.843,600.01136 457.60946,594.12879 457.60946,594.12879 C 457.60946,594.12879 453.32416,599.44719 454.14058,603.43417 C 454.88484,607.06885 467.65239,609.01509 467.65239,609.01509 C 467.65239,609.01509 452.71098,612.17579 450.9842,616.30903 z"
       id="path2389"
       sodipodi:nodetypes="ccscscscscscscscscscscs" />
  </g>
</svg>
