<?xml version="1.0" encoding="UTF-8" standalone="no"?>
<!-- Created with Inkscape (http://www.inkscape.org/) -->
<svg
   xmlns:dc="http://purl.org/dc/elements/1.1/"
   xmlns:cc="http://creativecommons.org/ns#"
   xmlns:rdf="http://www.w3.org/1999/02/22-rdf-syntax-ns#"
   xmlns:svg="http://www.w3.org/2000/svg"
   xmlns="http://www.w3.org/2000/svg"
   xmlns:xlink="http://www.w3.org/1999/xlink"
   xmlns:sodipodi="http://sodipodi.sourceforge.net/DTD/sodipodi-0.dtd"
   xmlns:inkscape="http://www.inkscape.org/namespaces/inkscape"
   width="126"
   height="100"
   id="svg2"
   sodipodi:version="0.32"
   inkscape:version="0.46"
   version="1.0"
   sodipodi:docname="explosion4.svg"
   inkscape:output_extension="org.inkscape.output.svg.inkscape">
  <defs
     id="defs4">
    <linearGradient
       id="linearGradient3166">
      <stop
         style="stop-color:#fdffca;stop-opacity:1;"
         offset="0"
         id="stop3178" />
      <stop
         id="stop3174"
         offset="1"
         style="stop-color:#fbff4c;stop-opacity:1;" />
    </linearGradient>
    <inkscape:perspective
       sodipodi:type="inkscape:persp3d"
       inkscape:vp_x="0 : 526.18109 : 1"
       inkscape:vp_y="0 : 1000 : 0"
       inkscape:vp_z="744.09448 : 526.18109 : 1"
       inkscape:persp3d-origin="372.04724 : 350.78739 : 1"
       id="perspective10" />
    <radialGradient
       inkscape:collect="always"
       xlink:href="#linearGradient3166"
       id="radialGradient3172"
       cx="440.7966"
       cy="604.52759"
       fx="440.7966"
       fy="604.52759"
       r="81.644852"
       gradientTransform="matrix(0.7037915,3.530828e-7,-3.0603359e-7,0.6100094,130.56793,235.75991)"
       gradientUnits="userSpaceOnUse" />
  </defs>
  <sodipodi:namedview
     id="base"
     pagecolor="#ffffff"
     bordercolor="#666666"
     borderopacity="1.0"
     inkscape:pageopacity="0.0"
     inkscape:pageshadow="2"
     inkscape:zoom="2.8"
     inkscape:cx="57.485714"
     inkscape:cy="52.306933"
     inkscape:document-units="px"
     inkscape:current-layer="layer1"
     showgrid="false"
     inkscape:window-width="799"
     inkscape:window-height="903"
     inkscape:window-x="371"
     inkscape:window-y="62" />
  <metadata
     id="metadata7">
    <rdf:RDF>
      <cc:Work
         rdf:about="">
        <dc:format>image/svg+xml</dc:format>
        <dc:type
           rdf:resource="http://purl.org/dc/dcmitype/StillImage" />
      </cc:Work>
    </rdf:RDF>
  </metadata>
  <g
     inkscape:label="Ebene 1"
     inkscape:groupmode="layer"
     id="layer1"
     transform="translate(-377.62135,-554.72347)">
    <path
       style="fill:url(#radialGradient3172);fill-opacity:1;stroke:none;stroke-width:0.10000000000000001;stroke-linecap:square;stroke-linejoin:miter;stroke-miterlimit:4;stroke-dashoffset:0;stroke-opacity:1"
       d="M 467.66014,615.43182 C 465.73755,620.0338 477.24871,626.02818 477.24871,626.02818 C 477.24871,626.02818 457.18831,624.58278 452.0507,628.20701 C 447.5361,631.39178 446.68697,641.07241 446.68697,641.07241 C 446.68697,641.07241 434.65986,634.74765 429.09688,635.25237 C 422.9226,635.81254 414.25904,652.18889 414.25904,652.18889 C 414.25904,652.18889 414.89098,635.57673 410.37792,633.26714 C 404.79313,630.40909 391.16731,635.96867 391.16731,635.96867 C 391.16731,635.96867 400.78894,629.05869 398.1876,624.29486 C 395.46746,619.31341 380.47849,620.67724 380.47849,620.67724 C 380.47849,620.67724 397.71338,615.66358 398.31335,609.52159 C 398.80288,604.51004 380.77077,592.31013 380.77077,592.31013 C 380.77077,592.31013 404.29718,603.10658 408.36697,598.11399 C 411.63799,594.10129 394.73831,569.53052 394.73831,569.53052 C 394.73831,569.53052 418.26473,591.87419 424.99948,589.54013 C 431.9489,587.13172 438.089,554.72347 438.089,554.72347 C 438.089,554.72347 440.78579,582.6172 445.93957,583.57354 C 452.16666,584.72905 469.60795,565.71329 469.60795,565.71329 C 469.60795,565.71329 460.87733,581.8545 464.56245,585.44083 C 468.88699,589.64944 485.33908,576.6029 485.33908,576.6029 C 485.33908,576.6029 471.00294,591.34348 472.16925,597.03917 C 473.23248,602.23156 503.97184,605.0119 503.97184,605.0119 C 503.97184,605.0119 470.12696,609.52719 467.66014,615.43182 z"
       id="path2389"
       sodipodi:nodetypes="ccscscscscscscscscscscs" />
  </g>
</svg>
