<?xml version="1.0" encoding="UTF-8" standalone="no"?>
<!-- Created with Inkscape (http://www.inkscape.org/) -->

<svg
   xmlns:dc="http://purl.org/dc/elements/1.1/"
   xmlns:cc="http://creativecommons.org/ns#"
   xmlns:rdf="http://www.w3.org/1999/02/22-rdf-syntax-ns#"
   xmlns:svg="http://www.w3.org/2000/svg"
   xmlns="http://www.w3.org/2000/svg"
   xmlns:xlink="http://www.w3.org/1999/xlink"
   xmlns:sodipodi="http://sodipodi.sourceforge.net/DTD/sodipodi-0.dtd"
   xmlns:inkscape="http://www.inkscape.org/namespaces/inkscape"
   width="238.28583mm"
   height="238.28578mm"
   viewBox="0 0 238.28583 238.28578"
   version="1.1"
   id="svg8"
   inkscape:version="0.92.3 (2405546, 2018-03-11)"
   sodipodi:docname="boatsWheel.svg">
  <defs
     id="defs2">
    <linearGradient
       inkscape:collect="always"
       id="linearGradient4544-3">
      <stop
         style="stop-color:#4d4d4d;stop-opacity:1;"
         offset="0"
         id="stop4540" />
      <stop
         style="stop-color:#2c2c2c;stop-opacity:1"
         offset="1"
         id="stop4542" />
    </linearGradient>
    <radialGradient
       inkscape:collect="always"
       xlink:href="#linearGradient4544-3"
       id="radialGradient4548"
       gradientUnits="userSpaceOnUse"
       gradientTransform="matrix(0.79254593,0.32828719,-0.28659559,0.69189768,61.25559,14.920965)"
       cx="97.156036"
       cy="141.17975"
       fx="97.156036"
       fy="141.17975"
       r="14.561391" />
  </defs>
  <sodipodi:namedview
     id="base"
     pagecolor="#ffffff"
     bordercolor="#666666"
     borderopacity="1.0"
     inkscape:pageopacity="0.0"
     inkscape:pageshadow="2"
     inkscape:zoom="0.33260208"
     inkscape:cx="-98.816618"
     inkscape:cy="267.84385"
     inkscape:document-units="mm"
     inkscape:current-layer="layer1"
     showgrid="false"
     inkscape:window-width="1177"
     inkscape:window-height="834"
     inkscape:window-x="283"
     inkscape:window-y="171"
     inkscape:window-maximized="0"
     fit-margin-top="0"
     fit-margin-left="0"
     fit-margin-right="0"
     fit-margin-bottom="0"
     showguides="false" />
  <metadata
     id="metadata5">
    <rdf:RDF>
      <cc:Work
         rdf:about="">
        <dc:format>image/svg+xml</dc:format>
        <dc:type
           rdf:resource="http://purl.org/dc/dcmitype/StillImage" />
        <dc:title />
      </cc:Work>
    </rdf:RDF>
  </metadata>
  <g
     inkscape:label="Layer 1"
     inkscape:groupmode="layer"
     id="layer1"
     transform="translate(21.357685,-25.900507)">
    <path
       style="fill:#814924;stroke-width:0.99999994;stroke:none;stroke-opacity:1;fill-opacity:1"
       d="M 450.30469 0 C 442.6617 0 435.01873 2.3582159 430.30469 7.0722656 C 406.39774 30.979195 430.30469 74.690471 430.30469 108.5 C 430.30469 108.5 427.46143 120.75289 425.27148 137.13477 A 315.74324 315.74321 0 0 0 245.66211 210.47461 C 232.94721 200.82525 222.75391 194.4707 222.75391 194.4707 C 198.84696 170.56376 184.84269 122.75002 151.0332 122.75 C 144.36652 122.75 137.29502 126.48623 131.89062 131.89062 C 126.48622 137.29503 122.74999 144.36654 122.75 151.0332 C 122.74998 184.84272 170.56376 198.84696 194.4707 222.75391 C 194.4707 222.75391 200.85371 232.99194 210.53906 245.74609 A 315.74324 315.74321 0 0 0 134.89258 425.57422 C 119.6475 427.71467 108.5 430.30273 108.5 430.30273 C 74.69047 430.30273 30.979195 406.39582 7.0722656 430.30273 C 2.3582159 435.01679 0 442.65977 0 450.30273 L 0 450.30469 C 0 457.94769 2.3582159 465.59067 7.0722656 470.30469 C 30.979195 494.21164 74.69047 470.30469 108.5 470.30469 C 108.5 470.30469 119.60785 472.8851 134.8125 475.02344 A 315.74324 315.74321 0 0 0 209.25781 656.54297 C 200.28429 668.50932 194.4707 677.85352 194.4707 677.85352 C 170.56376 701.76046 122.75002 715.76472 122.75 749.57422 C 122.75 756.24089 126.48624 763.31237 131.89062 768.7168 C 137.29504 774.12122 144.36655 777.85742 151.0332 777.85742 C 184.84272 777.85742 198.84696 730.04562 222.75391 706.13867 C 222.75391 706.13867 232.1956 700.26118 244.24805 691.21094 A 315.74324 315.74321 0 0 0 425.67383 766.45508 C 427.79382 781.32623 430.30469 792.10742 430.30469 792.10742 C 430.30469 825.917 406.39774 869.62817 430.30469 893.53516 C 435.01873 898.24917 442.6617 900.60742 450.30469 900.60742 C 457.94764 900.60742 465.59063 898.24917 470.30469 893.53516 C 494.2116 869.62817 470.30469 825.917 470.30469 792.10742 C 470.30469 792.10742 472.84942 781.16786 474.97852 766.13477 A 315.74324 315.74321 0 0 0 655.55273 690.59766 C 667.98366 699.98826 677.85352 706.13867 677.85352 706.13867 C 701.7605 730.04566 715.76468 777.85738 749.57422 777.85742 C 756.24085 777.85738 763.31237 774.12122 768.7168 768.7168 C 774.12118 763.31241 777.85738 756.24085 777.85742 749.57422 C 777.85738 715.76468 730.04566 701.7605 706.13867 677.85352 C 706.13867 677.85352 699.87111 667.80112 690.33398 655.20898 A 315.74324 315.74321 0 0 0 764.19141 475.24023 C 780.20901 473.064 792.10742 470.30469 792.10742 470.30469 C 825.917 470.30469 869.62821 494.21164 893.53516 470.30469 C 898.24917 465.59067 900.60742 457.94769 900.60742 450.30469 C 900.60742 442.66173 898.24917 435.0187 893.53516 430.30469 C 869.62821 406.39774 825.917 430.30469 792.10742 430.30469 C 792.10742 430.30469 780.02242 427.50014 763.8125 425.31641 A 315.74324 315.74321 0 0 0 689.38086 246.65039 C 699.45493 233.4765 706.13867 222.75391 706.13867 222.75391 C 730.04566 198.84692 777.85938 184.84274 777.85938 151.0332 C 777.85938 144.36658 774.12118 137.29504 768.7168 131.89062 C 763.31237 126.48623 756.24081 122.75 749.57422 122.75 C 715.76468 122.75 701.7605 170.56372 677.85352 194.4707 C 677.85352 194.4707 666.999 201.23499 653.71094 211.41602 A 315.74324 315.74321 0 0 0 475.33984 137.1582 C 473.14949 120.76438 470.30469 108.5 470.30469 108.5 C 470.30469 74.690471 494.2116 30.979195 470.30469 7.0722656 C 465.59063 2.3582159 457.94766 -2.8421709e-14 450.30469 0 z M 477.37109 182.45703 A 270.71036 270.71034 0 0 1 620.35742 242.01367 C 613.55418 250.01953 608.24953 258.2917 606.13281 266.19141 C 603.05146 277.69121 506.90651 376.45468 462.62305 420.56445 C 462.50024 358.06075 464.35198 220.24014 470.30469 209.92969 C 474.4355 202.77489 476.53791 193.0532 477.37109 182.45703 z M 423.24023 182.48828 C 424.07513 193.07217 426.17797 202.782 430.30469 209.92969 C 436.54074 220.73084 438.55375 358.94692 438.49805 421.07617 C 394.43627 377.20889 297.56923 277.73325 294.47656 266.19141 C 292.27673 257.98152 286.64635 249.36756 279.45508 241.07031 A 270.71036 270.71034 0 0 1 423.24023 182.48828 z M 240.83594 279.24609 C 249.20555 286.53512 257.90384 292.25592 266.19141 294.47656 C 278.2386 297.70461 377.39684 394.01334 421.28906 437.98438 C 359.11387 438.12192 220.27785 436.27728 209.92969 430.30273 C 202.28417 425.8886 191.70738 423.79448 180.26367 423.08789 A 270.71036 270.71034 0 0 1 240.83594 279.24609 z M 658.64648 280.20898 A 270.71036 270.71034 0 0 1 718.29102 423.22461 C 707.63979 424.05008 697.8644 426.15546 690.67773 430.30469 C 680.32951 436.27925 541.49272 438.12217 479.31836 437.98438 C 523.21054 394.01343 622.36885 297.70467 634.41602 294.47656 C 642.33278 292.35528 650.62451 287.03345 658.64648 280.20898 z M 421.07617 462.10938 C 377.2093 506.17079 277.73337 603.03822 266.19141 606.13086 C 257.4839 608.46404 248.32488 614.66916 239.56836 622.49023 A 270.71036 270.71034 0 0 1 180.16992 477.52539 C 191.64959 476.82453 202.26333 474.73086 209.92969 470.30469 C 220.73085 464.06864 358.94692 462.05368 421.07617 462.10938 z M 479.53125 462.10938 C 541.65975 462.05367 679.87648 464.06868 690.67773 470.30469 C 697.98221 474.52193 707.95579 476.63337 718.81055 477.42969 A 270.71036 270.71034 0 0 1 659.91797 621.49219 C 651.50351 614.14231 642.75184 608.36639 634.41602 606.13281 C 622.87406 603.04017 523.39785 506.17086 479.53125 462.10938 z M 438.49805 478.80469 C 438.56927 540.59608 436.56369 679.83678 430.30469 690.67773 C 425.79821 698.48318 423.70876 709.34489 423.04688 721.06445 A 270.71036 270.71034 0 0 1 278.08594 661.07422 C 285.9218 652.3071 292.14029 643.13514 294.47656 634.41602 C 297.71647 622.32455 394.75447 522.44756 438.49805 478.80469 z M 462.62305 479.31836 C 506.59402 523.21051 602.90476 622.36879 606.13281 634.41602 C 608.38875 642.83527 614.25959 651.67818 621.71484 660.16992 A 270.71036 270.71034 0 0 1 477.53516 720.61133 C 476.84495 709.06532 474.75305 698.38254 470.30469 690.67773 C 464.33015 680.32957 462.48527 541.4935 462.62305 479.31836 z "
       transform="matrix(0.26458333,0,0,0.26458333,-21.357685,25.900507)"
       id="rect3986" />
    <circle
       style="fill:url(#radialGradient4548);fill-opacity:1;stroke:none;stroke-width:0.32577389;stroke-miterlimit:4;stroke-dasharray:none;stroke-opacity:1"
       id="path4904"
       cx="97.785233"
       cy="145.0434"
       r="10.742113" />
  </g>
</svg>
