# Blender 3.3.1
# www.blender.org
mtllib torpedo.mtl
o Cylinder4
v 1.000000 -0.000000 3.219312
v 0.923880 -0.382684 3.219312
v 0.707107 -0.707107 3.219312
v 0.382683 -0.923880 3.219312
v 0.000000 -1.000000 3.219312
v -0.382683 -0.923880 3.219312
v -0.707107 -0.707107 3.219312
v -0.923880 -0.382684 3.219312
v -1.000000 -0.000000 3.219312
v -0.923880 0.382683 3.219312
v -0.707107 0.707107 3.219312
v -0.382683 0.923879 3.219312
v -0.000000 1.000000 3.219312
v 0.382683 0.923879 3.219312
v 0.707107 0.707107 3.219312
v 0.923880 0.382683 3.219312
v 1.000000 -0.000000 2.699312
v 0.923880 -0.382683 2.699312
v 0.707107 -0.707107 2.699312
v 0.382683 -0.923880 2.699312
v 0.000000 -1.000000 2.699312
v -0.382683 -0.923880 2.699312
v -0.707107 -0.707107 2.699312
v -0.923880 -0.382683 2.699312
v -1.000000 -0.000000 2.699312
v -0.923880 0.382683 2.699312
v -0.707107 0.707107 2.699312
v -0.382683 0.923879 2.699312
v -0.000000 1.000000 2.699312
v 0.382683 0.923879 2.699312
v 0.707107 0.707107 2.699312
v 0.923880 0.382683 2.699312
vn 1.0000 -0.0000 -0.0000
vn 0.9239 0.3827 -0.0000
vn 0.9239 -0.3827 -0.0000
vn 0.7071 -0.7071 -0.0000
vn 0.3827 -0.9239 -0.0000
vn -0.0000 -1.0000 -0.0000
vn -0.3827 -0.9239 -0.0000
vn -0.7071 -0.7071 -0.0000
vn -0.9239 -0.3827 -0.0000
vn -1.0000 -0.0000 -0.0000
vn -0.9239 0.3827 -0.0000
vn -0.7071 0.7071 -0.0000
vn -0.3827 0.9239 -0.0000
vn -0.0000 1.0000 -0.0000
vn 0.3827 0.9239 -0.0000
vn 0.7071 0.7071 -0.0000
s 1
usemtl default
f 1//1 17//1 32//2 16//2
f 2//3 18//3 17//1 1//1
f 3//4 19//4 18//3 2//3
f 4//5 20//5 19//4 3//4
f 5//6 21//6 20//5 4//5
f 6//7 22//7 21//6 5//6
f 7//8 23//8 22//7 6//7
f 8//9 24//9 23//8 7//8
f 9//10 25//10 24//9 8//9
f 10//11 26//11 25//10 9//10
f 11//12 27//12 26//11 10//11
f 12//13 28//13 27//12 11//12
f 13//14 29//14 28//13 12//13
f 14//15 30//15 29//14 13//14
f 15//16 31//16 30//15 14//15
f 16//2 32//2 31//16 15//16
o Cylinder5
v 0.019969 -0.056959 3.030108
v 0.040246 -0.044982 3.030108
v 0.060265 -0.003348 3.030108
v 0.056959 0.019969 3.030108
v 0.044981 0.040246 3.030108
v 0.003348 0.060265 3.030108
v -0.019969 0.056959 3.030108
v -0.040246 0.044981 3.030108
v -0.060265 0.003348 3.030108
v -0.056959 -0.019969 3.030108
v -0.044981 -0.040246 3.030108
v -0.003348 -0.060265 3.030108
v 0.019969 -0.056959 3.235493
v 0.040246 -0.044982 3.235493
v 0.060265 -0.003348 3.235493
v 0.056959 0.019969 3.235493
v 0.044981 0.040246 3.235493
v 0.003348 0.060265 3.235493
v -0.019969 0.056959 3.235493
v -0.040246 0.044981 3.235493
v -0.060265 0.003348 3.235493
v -0.056959 -0.019969 3.235493
v -0.044981 -0.040246 3.235493
v -0.003348 -0.060265 3.235493
v 0.056353 -0.018553 3.030108
v 0.049680 -0.032431 3.030108
v 0.018553 0.056353 3.030108
v 0.032431 0.049680 3.030108
v -0.056353 0.018553 3.030108
v -0.049680 0.032431 3.030108
v -0.018553 -0.056353 3.030108
v -0.032431 -0.049680 3.030108
v 0.056353 -0.018553 3.235493
v 0.049680 -0.032431 3.235493
v 0.018553 0.056353 3.235493
v 0.032431 0.049680 3.235493
v -0.056353 0.018553 3.235493
v -0.049680 0.032431 3.235493
v -0.018553 -0.056353 3.235493
v -0.032431 -0.049680 3.235493
v 0.626103 -0.251655 3.104203
v 0.646693 -0.286429 3.121143
v 0.625807 -0.252394 3.104209
v 0.251655 0.626103 3.104203
v 0.286429 0.646693 3.121143
v 0.252394 0.625807 3.104209
v -0.626103 0.251655 3.104203
v -0.646693 0.286429 3.121143
v -0.625807 0.252394 3.104209
v -0.331207 -0.587911 3.104209
v -0.326268 -0.627537 3.121143
v -0.331900 -0.587518 3.104203
v 0.627537 -0.326268 3.144458
v 0.587518 -0.331900 3.161399
v 0.587911 -0.331207 3.161392
v 0.326268 0.627537 3.144458
v 0.331900 0.587518 3.161399
v 0.331207 0.587911 3.161392
v -0.627537 0.326268 3.144458
v -0.587518 0.331900 3.161399
v -0.587911 0.331207 3.161392
v -0.286429 -0.646693 3.144458
v -0.252394 -0.625807 3.161392
v -0.251655 -0.626103 3.161399
vn 0.2947 -0.8408 -0.4542
vn -0.0494 -0.8895 -0.4542
vn 0.1924 -0.5299 -0.8260
vn -0.6561 -0.2219 -0.7214
vn -0.6640 -0.5940 -0.4542
vn -0.8408 -0.2947 -0.4542
vn -0.8895 0.0494 -0.4542
vn -0.6510 -0.2364 -0.7214
vn -0.1806 0.5340 -0.8260
vn -0.5940 0.6640 -0.4542
vn -0.2947 0.8408 -0.4542
vn 0.0494 0.8895 -0.4542
vn -0.2364 0.6510 -0.7214
vn 0.5340 0.1806 -0.8260
vn 0.6640 0.5940 -0.4542
vn 0.8408 0.2947 -0.4542
vn 0.8895 -0.0494 -0.4542
vn 0.6510 0.2364 -0.7214
vn 0.1806 -0.5340 -0.8260
vn 0.5940 -0.6640 -0.4542
vn 0.2947 -0.8408 0.4542
vn -0.0494 -0.8895 0.4542
vn 0.5940 -0.6640 0.4542
vn 0.8408 0.2947 0.4542
vn 0.8895 -0.0494 0.4542
vn 0.6640 0.5940 0.4542
vn -0.2947 0.8408 0.4542
vn 0.0494 0.8895 0.4542
vn -0.5940 0.6640 0.4542
vn -0.8408 -0.2947 0.4542
vn -0.8895 0.0494 0.4542
vn -0.6640 -0.5940 0.4542
vn 0.2219 -0.6561 0.7214
vn 0.5299 0.1924 0.8260
vn 0.6560 0.2219 0.7214
vn -0.1924 0.5299 0.8260
vn -0.2219 0.6561 0.7214
vn -0.5299 -0.1924 0.8260
vn -0.5340 -0.1806 0.8260
vn 0.2364 -0.6510 0.7214
vn 0.3774 0.2305 0.8969
vn 0.4221 -0.2297 0.8770
vn 0.4430 -0.1863 -0.8769
vn 0.4981 0.3204 -0.8058
vn -0.2305 0.3774 0.8969
vn 0.2297 0.4221 0.8770
vn 0.1863 0.4429 -0.8770
vn -0.3203 0.4981 -0.8058
vn -0.3774 -0.2305 0.8969
vn -0.4221 0.2297 0.8770
vn -0.4430 0.1863 -0.8769
vn -0.4981 -0.3204 -0.8058
vn 0.3204 -0.4981 0.8057
vn -0.1863 -0.4430 0.8770
vn -0.2297 -0.4222 -0.8770
vn 0.2305 -0.3774 -0.8969
vn 0.0608 -0.5891 0.8057
vn 0.5891 0.0608 0.8057
vn -0.0608 0.5891 0.8057
vn -0.4387 -0.0556 0.8969
vn 0.0556 -0.4387 -0.8969
vn 0.4387 0.0556 -0.8969
vn -0.0556 0.4387 -0.8969
vn -0.5891 -0.0608 -0.8058
s 1
usemtl default
f 33//17 44//18 63//19 64//20 43//21 42//22 41//23 61//24 62//25 40//26 39//27 38//28 59//29 60//30 37//31 36//32 35//33 57//34 58//35 34//36
f 33//17 45//37 56//38 44//18
f 34//36 46//39 45//37 33//17
f 36//32 48//40 47//41 35//33
f 37//31 49//42 48//40 36//32
f 39//27 51//43 50//44 38//28
f 40//26 52//45 51//43 39//27
f 42//22 54//46 53//47 41//23
f 43//21 55//48 54//46 42//22
f 46//39 66//49 65//50 47//41 48//40 49//42 68//51 67//52 50//44 51//43 52//45 70//53 69//54 53//47 54//46 55//48 72//55 71//56 56//38 45//37
f 47//41 65//50 57//34 35//33
f 50//44 67//52 59//29 38//28
f 53//47 69//54 61//24 41//23
f 56//38 71//56 63//19 44//18
f 57//34 65//50 87//57 85//58 74//59 73//60
f 58//35 66//49 46//39 34//36
f 59//29 67//52 90//61 88//62 77//63 76//64
f 60//30 68//51 49//42 37//31
f 61//24 69//54 93//65 91//66 80//67 79//68
f 62//25 70//53 52//45 40//26
f 63//19 71//56 96//69 94//70 83//71 82//72
f 64//20 72//55 55//48 43//21
f 65//50 66//49 86//73 87//57
f 67//52 68//51 89//74 90//61
f 69//54 70//53 92//75 93//65
f 71//56 72//55 95//76 96//69
f 73//60 74//59 75//77
f 73//60 75//77 58//35 57//34
f 76//64 77//63 78//78
f 76//64 78//78 60//30 59//29
f 79//68 80//67 81//79
f 79//68 81//79 62//25 61//24
f 82//72 83//71 84//80
f 82//72 84//80 64//20 63//19
f 85//58 86//73 66//49 58//35 75//77 74//59
f 85//58 87//57 86//73
f 88//62 89//74 68//51 60//30 78//78 77//63
f 88//62 90//61 89//74
f 91//66 92//75 70//53 62//25 81//79 80//67
f 91//66 93//65 92//75
f 94//70 95//76 72//55 64//20 84//80 83//71
f 94//70 96//69 95//76
o Cylinder5_copy6
v 0.042999 0.041200 3.030108
v 0.042999 0.041200 3.235493
v 0.024746 -0.052013 3.030108
v 0.010214 -0.057108 3.030108
v 0.050984 0.027681 3.030108
v 0.056079 0.013150 3.030108
v -0.028711 0.053920 3.030108
v -0.014179 0.059014 3.030108
v -0.054949 -0.025775 3.030108
v -0.060044 -0.011243 3.030108
v 0.024746 -0.052013 3.235493
v 0.010214 -0.057108 3.235493
v 0.050984 0.027681 3.235493
v 0.056079 0.013150 3.235493
v -0.028711 0.053920 3.235493
v -0.014179 0.059014 3.235493
v -0.054949 -0.025775 3.235493
v -0.060044 -0.011243 3.235493
v 0.262792 -0.619715 3.104203
v 0.252762 -0.658864 3.121143
v 0.262060 -0.620029 3.104209
v 0.618686 0.265728 3.104203
v 0.657834 0.255698 3.121143
v 0.619000 0.264996 3.104209
v -0.266757 0.621622 3.104203
v -0.256727 0.660770 3.121143
v -0.266025 0.621935 3.104209
v -0.651897 -0.180564 3.104209
v -0.676425 -0.212076 3.121143
v -0.652109 -0.179796 3.104203
v 0.211046 -0.673489 3.144458
v 0.178767 -0.649173 3.161399
v 0.179534 -0.648962 3.161392
v 0.672459 0.213982 3.144458
v 0.648144 0.181703 3.161399
v 0.647932 0.182470 3.161392
v -0.215012 0.675395 3.144458
v -0.182732 0.651080 3.161399
v -0.183500 0.650868 3.161392
v -0.661799 -0.253792 3.144458
v -0.622965 -0.263090 3.161392
v -0.622651 -0.263821 3.161399
vn -0.4662 0.8847 -0.0000
vn -0.1892 0.8253 -0.5321
vn -0.2485 -0.6685 -0.7010
vn -0.3135 -0.8434 0.4364
vn -0.1380 0.6020 0.7865
vn 0.4175 0.7861 -0.4557
vn -0.6369 0.2755 -0.7200
vn -0.8170 0.3533 0.4557
vn 0.3255 0.6129 0.7200
vn 0.4299 -0.1039 0.8969
vn 0.1361 -0.4609 0.8770
vn 0.1814 -0.4450 -0.8770
vn 0.5788 -0.1257 -0.8058
vn 0.1039 0.4299 0.8969
vn 0.4609 0.1361 0.8770
vn 0.4450 0.1814 -0.8770
vn 0.1257 0.5787 -0.8058
vn -0.4175 -0.7861 -0.4557
vn -0.3255 -0.6129 0.7200
vn -0.4299 0.1039 0.8969
vn -0.1361 0.4609 0.8769
vn -0.1814 0.4450 -0.8770
vn -0.5788 0.1257 -0.8058
vn 0.6369 -0.2755 -0.7200
vn 0.8170 -0.3533 0.4557
vn 0.6129 -0.3255 -0.7200
vn 0.7861 -0.4175 0.4557
vn -0.1257 -0.5788 0.8057
vn -0.4450 -0.1815 0.8770
vn -0.4609 -0.1361 -0.8770
vn -0.1039 -0.4299 -0.8969
vn -0.3736 -0.4596 0.8057
vn 0.4596 -0.3736 0.8058
vn 0.3736 0.4596 0.8057
vn 0.3533 0.8170 -0.4557
vn 0.2755 0.6369 0.7200
vn -0.3496 0.2709 0.8969
vn -0.2709 -0.3496 -0.8969
vn 0.3496 -0.2709 -0.8969
vn 0.2709 0.3496 -0.8969
vn -0.4596 0.3736 -0.8057
s 1
usemtl default
f 97//81 101//82 102//83 110//84 109//85 98//81
f 98//81 109//85 101//82 97//81
f 99//86 100//87 108//88 107//89
f 99//86 107//89 129//90 127//91 116//92 115//93
f 101//82 109//85 132//94 130//95 119//96 118//97
f 103//98 111//99 135//100 133//101 122//102 121//103
f 104//104 112//105 111//99 103//98
f 105//106 113//107 138//108 136//109 125//110 124//111
f 107//89 108//88 128//112 129//90
f 109//85 110//84 131//113 132//94
f 111//99 112//105 134//114 135//100
f 113//107 105//106 106//115 114//116
f 113//107 114//116 137//117 138//108
f 115//93 116//92 117//118
f 115//93 117//118 100//87 99//86
f 118//97 119//96 120//119
f 118//97 120//119 102//83 101//82
f 121//103 122//102 123//120
f 121//103 123//120 104//104 103//98
f 124//111 125//110 126//121
f 124//111 126//121 106//115 105//106
f 127//91 128//112 108//88 100//87 117//118 116//92
f 127//91 129//90 128//112
f 130//95 131//113 110//84 102//83 120//119 119//96
f 130//95 132//94 131//113
f 133//101 134//114 112//105 104//104 123//120 122//102
f 133//101 135//100 134//114
f 136//109 137//117 114//116 106//115 126//121 125//110
f 136//109 138//108 137//117
o sphere3
v 1.000000 0.000000 -1.431112
v 0.923880 0.382684 -1.431112
v 0.707107 0.707107 -1.431112
v 0.382683 0.923880 -1.431112
v 0.000000 1.000000 -1.431112
v -0.382683 0.923880 -1.431112
v -0.707107 0.707107 -1.431112
v -0.923880 0.382684 -1.431112
v -1.000000 0.000000 -1.431112
v -0.923880 -0.382683 -1.431112
v -0.707107 -0.707107 -1.431112
v -0.382683 -0.923879 -1.431112
v -0.000000 -1.000000 -1.431112
v 0.382683 -0.923879 -1.431112
v 0.707107 -0.707107 -1.431112
v 0.923880 -0.382683 -1.431112
v 0.923880 -0.000000 1.795389
v 0.853553 0.353553 1.795389
v 0.653281 0.653281 1.795389
v 0.353553 0.853553 1.795389
v 0.000000 0.923880 1.795389
v -0.353553 0.853553 1.795389
v -0.653281 0.653281 1.795389
v -0.853553 0.353553 1.795389
v -0.923880 -0.000000 1.795389
v -0.853553 -0.353553 1.795389
v -0.653281 -0.653281 1.795389
v -0.353553 -0.853553 1.795389
v -0.000000 -0.923880 1.795389
v 0.353553 -0.853553 1.795389
v 0.653281 -0.653281 1.795389
v 0.853553 -0.353553 1.795389
v 0.707107 -0.000000 2.340420
v 0.653281 0.270598 2.340420
v 0.717059 0.716320 2.527230
v 0.270598 0.653281 2.340420
v 0.000000 0.707107 2.340421
v -0.270598 0.653281 2.340420
v -0.717059 0.716320 2.527230
v -0.653281 0.270598 2.340420
v -0.707107 -0.000000 2.340420
v -0.653281 -0.270598 2.340420
v -0.717059 -0.716321 2.527230
v -0.270598 -0.653282 2.340420
v -0.000000 -0.707107 2.340420
v 0.270598 -0.653282 2.340420
v 0.717059 -0.716321 2.527230
v 0.653281 -0.270598 2.340420
v 0.382683 -0.000000 3.028865
v 0.353553 0.156678 3.028865
v 0.717059 0.716320 3.215674
v 0.146447 0.378255 3.028865
v 0.000000 0.409421 3.028865
v -0.146447 0.378255 3.028865
v -0.717059 0.716320 3.215674
v -0.353553 0.156678 3.028865
v -0.382683 -0.000000 3.028865
v -0.353553 -0.156679 3.028865
v -0.717059 -0.716321 3.215674
v -0.146447 -0.378256 3.028865
v -0.000000 -0.409421 3.028865
v 0.146447 -0.378256 3.028865
v 0.717059 -0.716321 3.215674
v 0.353553 -0.156679 3.028865
v 0.923880 0.000000 -2.074020
v 0.853553 0.353554 -2.074020
v 0.653281 0.653282 -2.074020
v 0.353553 0.853554 -2.074020
v 0.000000 0.923880 -2.074020
v -0.353553 0.853554 -2.074020
v -0.653281 0.653282 -2.074020
v -0.853553 0.353554 -2.074020
v -0.923880 0.000000 -2.074020
v -0.853553 -0.353553 -2.074020
v -0.653281 -0.653281 -2.074020
v -0.353553 -0.853553 -2.074020
v -0.000000 -0.923879 -2.074020
v 0.353553 -0.853553 -2.074020
v 0.653281 -0.653281 -2.074020
v 0.853553 -0.353553 -2.074020
v 0.707107 0.000000 -2.619051
v 0.653281 0.270598 -2.619051
v 0.500000 0.500000 -2.619051
v 0.270598 0.653282 -2.619051
v 0.000000 0.707107 -2.619051
v -0.270598 0.653282 -2.619051
v -0.500000 0.500000 -2.619051
v -0.653281 0.270598 -2.619051
v -0.707107 0.000000 -2.619051
v -0.653281 -0.270598 -2.619051
v -0.500000 -0.500000 -2.619051
v -0.270598 -0.653281 -2.619051
v -0.000000 -0.707107 -2.619051
v 0.270598 -0.653281 -2.619051
v 0.500000 -0.500000 -2.619051
v 0.653281 -0.270598 -2.619051
v 0.382683 0.000000 -2.983229
v 0.353553 0.146447 -2.983229
v 0.270598 0.270598 -2.983229
v 0.146447 0.353554 -2.983229
v -0.000000 0.382684 -2.983229
v -0.146447 0.353554 -2.983229
v -0.270598 0.270598 -2.983229
v -0.353553 0.146447 -2.983229
v -0.382683 0.000000 -2.983229
v -0.353553 -0.146446 -2.983229
v -0.270598 -0.270598 -2.983229
v -0.146447 -0.353553 -2.983229
v -0.000000 -0.382683 -2.983229
v 0.146447 -0.353553 -2.983229
v 0.270598 -0.270598 -2.983229
v 0.353553 -0.146446 -2.983229
v -0.000000 0.000000 -3.111112
v 0.457703 0.528262 2.340420
v 0.513294 0.513294 2.293151
v 0.528262 0.457703 2.340420
v -0.528262 0.457703 2.340420
v -0.513294 0.513294 2.293151
v -0.457703 0.528262 2.340420
v -0.457703 -0.528262 2.340420
v -0.513294 -0.513294 2.293151
v -0.528262 -0.457703 2.340420
v 0.528262 -0.457703 2.340420
v 0.513294 -0.513294 2.293151
v 0.457703 -0.528262 2.340420
v 0.229214 0.319088 3.028865
v 0.297545 0.246357 3.028865
v -0.297545 0.246357 3.028865
v -0.229214 0.319088 3.028865
v -0.229214 -0.319088 3.028865
v -0.297545 -0.246357 3.028865
v 0.297545 -0.246357 3.028865
v 0.229214 -0.319088 3.028865
vn 0.9989 -0.0000 -0.0471
vn 0.9798 -0.0000 0.2000
vn 0.9052 -0.3750 0.2000
vn 0.9229 -0.3823 -0.0467
vn 0.9693 -0.0000 -0.2458
vn 0.8955 0.3709 -0.2458
vn 0.9229 0.3823 -0.0472
vn 0.9052 0.3750 0.2000
vn 0.6854 0.6854 -0.2458
vn 0.7063 0.7063 -0.0472
vn 0.6928 0.6928 0.2000
vn 0.3709 0.8955 -0.2458
vn 0.3823 0.9229 -0.0472
vn 0.3750 0.9052 0.2000
vn -0.0000 0.9693 -0.2458
vn -0.0000 0.9989 -0.0471
vn -0.0000 0.9798 0.2000
vn -0.3709 0.8955 -0.2458
vn -0.3823 0.9229 -0.0472
vn -0.3750 0.9052 0.2000
vn -0.6854 0.6854 -0.2458
vn -0.7063 0.7063 -0.0472
vn -0.6928 0.6928 0.2000
vn -0.8955 0.3709 -0.2458
vn -0.9229 0.3823 -0.0467
vn -0.9052 0.3750 0.2000
vn -0.9693 -0.0000 -0.2458
vn -0.9989 -0.0000 -0.0471
vn -0.9798 -0.0000 0.2000
vn -0.8955 -0.3709 -0.2458
vn -0.9229 -0.3823 -0.0472
vn -0.9052 -0.3750 0.2000
vn -0.6854 -0.6854 -0.2458
vn -0.7063 -0.7063 -0.0472
vn -0.6928 -0.6928 0.2000
vn -0.3709 -0.8955 -0.2458
vn -0.3823 -0.9229 -0.0472
vn -0.3750 -0.9052 0.2000
vn -0.0000 -0.9693 -0.2458
vn -0.0000 -0.9989 -0.0471
vn -0.0000 -0.9798 0.2000
vn 0.3709 -0.8955 -0.2458
vn 0.3823 -0.9229 -0.0472
vn 0.3750 -0.9052 0.2000
vn 0.6854 -0.6854 -0.2458
vn 0.7063 -0.7063 -0.0472
vn 0.6928 -0.6928 0.2000
vn 0.8955 -0.3709 -0.2458
vn 0.9176 -0.0000 0.3975
vn 0.8496 -0.3486 0.3958
vn 0.8496 0.3486 0.3958
vn 0.7022 0.7021 -0.1178
vn 0.9949 0.0460 0.0893
vn 0.3560 0.8512 0.3857
vn 0.0606 0.9948 0.0813
vn -0.0000 0.9233 0.3840
vn -0.3560 0.8511 0.3857
vn -0.7022 0.7021 -0.1178
vn -0.0606 0.9948 0.0813
vn -0.8496 0.3486 0.3958
vn -0.9949 0.0460 0.0893
vn -0.9176 -0.0000 0.3975
vn -0.8496 -0.3486 0.3958
vn -0.7022 -0.7021 -0.1178
vn -0.9949 -0.0460 0.0893
vn -0.3560 -0.8512 0.3857
vn -0.0606 -0.9948 0.0813
vn -0.0000 -0.9233 0.3840
vn 0.3560 -0.8511 0.3857
vn 0.7022 -0.7021 -0.1178
vn 0.0606 -0.9948 0.0813
vn 0.9949 -0.0460 0.0893
vn 0.6965 -0.0000 0.7175
vn 0.6475 -0.2615 0.7158
vn 0.6470 0.2628 0.7158
vn 0.5119 0.5086 -0.6924
vn -0.0000 0.7111 0.7031
vn 0.2773 0.6528 0.7050
vn -0.2759 0.6533 0.7050
vn -0.5119 0.5086 -0.6924
vn -0.6965 -0.0000 0.7175
vn -0.6475 0.2615 0.7158
vn -0.6470 -0.2628 0.7158
vn -0.5119 -0.5086 -0.6924
vn -0.0000 -0.7111 0.7031
vn -0.2773 -0.6528 0.7050
vn 0.2759 -0.6533 0.7050
vn 0.5119 -0.5086 -0.6924
vn 0.4771 -0.1254 0.8699
vn -0.1138 0.4900 0.8643
vn 0.1138 0.4900 0.8643
vn -0.4771 -0.1253 0.8699
vn -0.4771 0.1254 0.8699
vn 0.1138 -0.4900 0.8643
vn -0.1138 -0.4900 0.8643
vn 0.4771 0.1253 0.8699
vn -0.0687 -0.0608 0.9958
vn 0.0687 -0.0608 0.9958
vn 0.0687 0.0608 0.9958
vn -0.0687 0.0608 0.9958
vn 0.8506 -0.0000 -0.5258
vn 0.7859 0.3255 -0.5258
vn 0.6015 0.6015 -0.5258
vn 0.3255 0.7859 -0.5258
vn -0.0000 0.8506 -0.5258
vn -0.3255 0.7859 -0.5258
vn -0.6015 0.6015 -0.5258
vn -0.7859 0.3255 -0.5258
vn -0.8506 -0.0000 -0.5258
vn -0.7859 -0.3255 -0.5258
vn -0.6015 -0.6015 -0.5258
vn -0.3255 -0.7859 -0.5258
vn -0.0000 -0.8506 -0.5258
vn 0.3255 -0.7859 -0.5258
vn 0.6015 -0.6015 -0.5258
vn 0.7859 -0.3255 -0.5258
vn 0.5494 -0.0000 -0.8356
vn 0.5076 0.2102 -0.8356
vn 0.3885 0.3885 -0.8356
vn 0.2102 0.5076 -0.8356
vn -0.0000 0.5494 -0.8356
vn -0.2102 0.5075 -0.8356
vn -0.3885 0.3885 -0.8356
vn -0.5075 0.2102 -0.8356
vn -0.5494 -0.0000 -0.8356
vn -0.5076 -0.2102 -0.8356
vn -0.3885 -0.3885 -0.8356
vn -0.2102 -0.5076 -0.8356
vn -0.0000 -0.5494 -0.8356
vn 0.2102 -0.5075 -0.8356
vn 0.3885 -0.3885 -0.8356
vn 0.5075 -0.2102 -0.8356
vn -0.0000 -0.0000 -1.0000
s 1
usemtl default
f 139//122 155//123 170//124 154//125
f 139//122 203//126 204//127 140//128
f 140//128 156//129 155//123 139//122
f 140//128 204//127 205//130 141//131
f 141//131 157//132 156//129 140//128
f 141//131 205//130 206//133 142//134
f 142//134 158//135 157//132 141//131
f 142//134 206//133 207//136 143//137
f 143//137 159//138 158//135 142//134
f 143//137 207//136 208//139 144//140
f 144//140 160//141 159//138 143//137
f 144//140 208//139 209//142 145//143
f 145//143 161//144 160//141 144//140
f 145//143 209//142 210//145 146//146
f 146//146 162//147 161//144 145//143
f 146//146 210//145 211//148 147//149
f 147//149 163//150 162//147 146//146
f 147//149 211//148 212//151 148//152
f 148//152 164//153 163//150 147//149
f 148//152 212//151 213//154 149//155
f 149//155 165//156 164//153 148//152
f 149//155 213//154 214//157 150//158
f 150//158 166//159 165//156 149//155
f 150//158 214//157 215//160 151//161
f 151//161 167//162 166//159 150//158
f 151//161 215//160 216//163 152//164
f 152//164 168//165 167//162 151//161
f 152//164 216//163 217//166 153//167
f 153//167 169//168 168//165 152//164
f 153//167 217//166 218//169 154//125
f 154//125 170//124 169//168 153//167
f 154//125 218//169 203//126 139//122
f 155//123 171//170 186//171 170//124
f 156//129 172//172 171//170 155//123
f 157//132 253//173 254//174 172//172 156//129
f 158//135 174//175 252//176 253//173 157//132
f 159//138 175//177 174//175 158//135
f 160//141 176//178 175//177 159//138
f 161//144 256//179 257//180 176//178 160//141
f 162//147 178//181 255//182 256//179 161//144
f 163//150 179//183 178//181 162//147
f 164//153 180//184 179//183 163//150
f 165//156 259//185 260//186 180//184 164//153
f 166//159 182//187 258//188 259//185 165//156
f 167//162 183//189 182//187 166//159
f 168//165 184//190 183//189 167//162
f 169//168 262//191 263//192 184//190 168//165
f 170//124 186//171 261//193 262//191 169//168
f 171//170 187//194 202//195 186//171
f 172//172 188//196 187//194 171//170
f 173//197 253//173 252//176
f 173//197 254//174 253//173
f 175//177 191//198 190//199 174//175
f 176//178 192//200 191//198 175//177
f 177//201 256//179 255//182
f 177//201 257//180 256//179
f 179//183 195//202 194//203 178//181
f 180//184 196//204 195//202 179//183
f 181//205 259//185 258//188
f 181//205 260//186 259//185
f 183//189 199//206 198//207 182//187
f 184//190 200//208 199//206 183//189
f 185//209 262//191 261//193
f 185//209 263//192 262//191
f 188//196 265//210 264//211 190//199 191//198 192//200 267//212 266//213 194//203 195//202 196//204 269//214 268//215 198//207 199//206 200//208 271//216 270//217 202//195 187//194
f 189//218 265//210 254//174 173//197
f 190//199 264//211 252//176 174//175
f 193//219 267//212 257//180 177//201
f 194//203 266//213 255//182 178//181
f 197//220 269//214 260//186 181//205
f 198//207 268//215 258//188 182//187
f 201//221 271//216 263//192 185//209
f 202//195 270//217 261//193 186//171
f 203//126 219//222 220//223 204//127
f 204//127 220//223 221//224 205//130
f 205//130 221//224 222//225 206//133
f 206//133 222//225 223//226 207//136
f 207//136 223//226 224//227 208//139
f 208//139 224//227 225//228 209//142
f 209//142 225//228 226//229 210//145
f 210//145 226//229 227//230 211//148
f 211//148 227//230 228//231 212//151
f 212//151 228//231 229//232 213//154
f 213//154 229//232 230//233 214//157
f 214//157 230//233 231//234 215//160
f 215//160 231//234 232//235 216//163
f 216//163 232//235 233//236 217//166
f 217//166 233//236 234//237 218//169
f 218//169 234//237 219//222 203//126
f 219//222 235//238 236//239 220//223
f 220//223 236//239 237//240 221//224
f 221//224 237//240 238//241 222//225
f 222//225 238//241 239//242 223//226
f 223//226 239//242 240//243 224//227
f 224//227 240//243 241//244 225//228
f 225//228 241//244 242//245 226//229
f 226//229 242//245 243//246 227//230
f 227//230 243//246 244//247 228//231
f 228//231 244//247 245//248 229//232
f 229//232 245//248 246//249 230//233
f 230//233 246//249 247//250 231//234
f 231//234 247//250 248//251 232//235
f 232//235 248//251 249//252 233//236
f 233//236 249//252 250//253 234//237
f 234//237 250//253 235//238 219//222
f 235//238 251//254 236//239
f 236//239 251//254 237//240
f 237//240 251//254 238//241
f 238//241 251//254 239//242
f 239//242 251//254 240//243
f 240//243 251//254 241//244
f 241//244 251//254 242//245
f 242//245 251//254 243//246
f 243//246 251//254 244//247
f 244//247 251//254 245//248
f 245//248 251//254 246//249
f 246//249 251//254 247//250
f 247//250 251//254 248//251
f 248//251 251//254 249//252
f 249//252 251//254 250//253
f 250//253 251//254 235//238
f 252//176 264//211 189//218 173//197
f 254//174 265//210 188//196 172//172
f 255//182 266//213 193//219 177//201
f 257//180 267//212 192//200 176//178
f 258//188 268//215 197//220 181//205
f 260//186 269//214 196//204 180//184
f 261//193 270//217 201//221 185//209
f 263//192 271//216 200//208 184//190
f 264//211 265//210 189//218
f 266//213 267//212 193//219
f 268//215 269//214 197//220
f 270//217 271//216 201//221
